<?xml version="1.0" encoding="utf-8"?><!DOCTYPE svg PUBLIC "-//W3C//DTD SVG 1.1//EN" "http://www.w3.org/Graphics/SVG/1.1/DTD/svg11.dtd"><svg viewBox="0 0 750 500" xmlns="http://www.w3.org/2000/svg"><g><path d="m0 0v500h750v-500z" fill="#078930"/><path d="m0 0v50.062l674.875 449.938h75.125v-50.062l-674.875-449.938z" fill="#fcdd09"/></g><g stroke="#000" stroke-linecap="round" stroke-linejoin="round" transform="translate(-645.4449 -273.3051)"><g transform="matrix(.25 0 0 .25 951.6949 398.3051)"><path d="m448.8071 353c0 7.0122-38.1058 21.2714-173.8071 21.2714s-173.8071-14.2592-173.8071-21.2714 38.1058-21.2715 173.8071-21.2715 173.8071 14.2593 173.8071 21.2715z" fill="#ed1c24"/><g fill="none"><path d="m122.422 343.829v18.341" stroke-width="5.5"/><path d="m128.859 342.34v21.319" stroke-width="5.25"/><path d="m135.296 341.363v23.273" stroke-width="5"/><path d="m141.733 340.154v25.692" stroke-width="4.75"/><path d="m148.171 339.084v27.832" stroke-width="4.5"/><path d="m154.608 338.153v29.693" stroke-width="4.25"/><path d="m161.045 337.223v31.553" stroke-width="4"/><path d="m167.482 336.432v33.135" stroke-width="3.75"/><path d="m173.92 335.92v34.159" stroke-width="3.5"/><path d="m180.357 335.316v35.368" stroke-width="3.25"/><path d="m186.794 334.385v37.229" stroke-width="3"/><path d="m193.232 333.873v38.253" stroke-width="2.75"/><path d="m199.669 333.641v38.718" stroke-width="2.5"/><path d="m206.106 333.082v39.834" stroke-width="2.25"/><path d="m212.543 332.617v40.765" stroke-width="2"/><path d="m218.981 332.338v41.323" stroke-width="1.75"/><path d="m225.418 331.92v42.16" stroke-width="1.5"/><path d="m231.855 331.64v42.719" stroke-width="1.25"/><path d="m238.292 330.803v44.394"/><path d="m244.73 330.803v44.394" stroke-width=".75"/><path d="m251.167 330.803v44.394" stroke-width=".5"/><path d="m257.604 330.803v44.394" stroke-width=".25"/><path d="m109.547 348.248v9.502" stroke-width="6"/><path d="m115.984 345.876v14.248" stroke-width="5.75"/><path d="m427.579 343.829v18.341" stroke-width="5.5"/><path d="m421.142 342.34v21.319" stroke-width="5.25"/><path d="m414.704 341.363v23.273" stroke-width="5"/><path d="m408.267 340.154v25.692" stroke-width="4.75"/><path d="m401.83 339.084v27.832" stroke-width="4.5"/><path d="m395.393 338.153v29.693" stroke-width="4.25"/><path d="m388.955 337.223v31.553" stroke-width="4"/><path d="m382.518 336.432v33.135" stroke-width="3.75"/><path d="m376.081 335.92v34.159" stroke-width="3.5"/><path d="m369.643 335.316v35.368" stroke-width="3.25"/><path d="m363.206 334.385v37.229" stroke-width="3"/><path d="m356.769 333.873v38.253" stroke-width="2.75"/><path d="m350.332 333.641v38.718" stroke-width="2.5"/><path d="m343.894 333.082v39.834" stroke-width="2.25"/><path d="m337.457 332.617v40.765" stroke-width="2"/><path d="m331.02 332.338v41.323" stroke-width="1.75"/><path d="m324.583 331.92v42.16" stroke-width="1.5"/><path d="m318.145 331.64v42.719" stroke-width="1.25"/><path d="m311.708 330.803v44.394"/><path d="m305.271 330.803v44.394" stroke-width=".75"/><path d="m298.834 330.803v44.394" stroke-width=".5"/><path d="m292.396 330.803v44.394" stroke-width=".25"/><path d="m440.453 348.248v9.502" stroke-width="6"/><path d="m434.016 345.876v14.248" stroke-width="5.75"/></g><g><path d="m528.3662 209.2388-50.536 74.1847-46.9073 30.9858-155.9229-11.745-155.9229 11.745-46.9074-30.9858-50.536-74.1847c16.7216-26.9465 57.8206-48.7939 105.2698-46.7128 49.7765 2.1831 74.6185-24.0255 148.0965-24.0255 73.4779 0 98.32 26.2086 148.0964 24.0255 47.4492-2.0811 88.5482 19.7663 105.2698 46.7128z" fill="#ed1c24"/><path d="m511.8256 210.012 14.8362-37.0388-19.4107-41.7457c34.5966 28.1238 37.7896 59.493 16.5004 95.3926z" fill="#eac102"/><path d="m320.176 101.7599c0 4.363 3.537 7.9 7.9 7.9s7.9-3.537 7.9-7.9c0-4.3631-3.537-7.9-7.9-7.9s-7.9 3.5369-7.9 7.9z" fill="#e5e5e5" fill-rule="evenodd"/><path d="m284.62 97.8108c32.416 9.9067 67.7551 21.0545 99.77 16.2838 63.6159-9.4797 101.981.1871 122.8611 17.1329 28.0226 22.7426 24.5544 58.5613 8.3899 78.4713l8.1105 16.9212-7.6257 2.4534-9.7328-19.8185c32.728-34.8265 17.7717-108.4102-120.838-87.7334-33.376 4.9787-70.105-6.3944-103.326-16.5473z" fill="#eac102"/><path d="m515.641 209.6989-9.248-.4439" fill="none"/><path d="m397.676 103.6853c0 4.363 3.537 7.9 7.9 7.9s7.9-3.537 7.9-7.9c0-4.3631-3.537-7.9-7.9-7.9s-7.9 3.5369-7.9 7.9z" fill="#e5e5e5" fill-rule="evenodd"/><path d="m378.426 105.9654c0 4.363 3.537 7.9 7.9 7.9s7.9-3.537 7.9-7.9c0-4.3631-3.537-7.9-7.9-7.9s-7.9 3.5369-7.9 7.9z" fill="#e5e5e5" fill-rule="evenodd"/><path d="m301.176 96.8957c0 4.363 3.537 7.9 7.9 7.9s7.9-3.537 7.9-7.9c0-4.3631-3.537-7.9-7.9-7.9s-7.9 3.5369-7.9 7.9z" fill="#e5e5e5" fill-rule="evenodd"/><path d="m522.6301 215.5151c0 4.3631 3.537 7.9 7.9 7.9s7.9-3.5369 7.9-7.9-3.537-7.9-7.9-7.9-7.9 3.5369-7.9 7.9z" fill="#e5e5e5" fill-rule="evenodd"/><path d="m530.1286 197.6768c0 4.3631 3.537 7.9 7.9 7.9s7.9-3.5369 7.9-7.9-3.537-7.9-7.9-7.9-7.9 3.5369-7.9 7.9z" fill="#e5e5e5" fill-rule="evenodd"/><path d="m533.7 179.0298c0 4.3631 3.537 7.9 7.9 7.9s7.9-3.5369 7.9-7.9-3.537-7.9-7.9-7.9-7.9 3.5369-7.9 7.9z" fill="#e5e5e5" fill-rule="evenodd"/><path d="m530.4256 160.2819c0 4.3631 3.537 7.9 7.9 7.9s7.9-3.5369 7.9-7.9-3.537-7.9-7.9-7.9-7.9 3.5369-7.9 7.9z" fill="#e5e5e5" fill-rule="evenodd"/><path d="m520.9255 143.5614c0 4.363 3.537 7.9 7.9 7.9s7.9-3.537 7.9-7.9c0-4.3631-3.537-7.9-7.9-7.9s-7.9 3.5369-7.9 7.9z" fill="#e5e5e5" fill-rule="evenodd"/><path d="m508.4255 128.6142c0 4.363 3.537 7.9 7.9 7.9s7.9-3.537 7.9-7.9c0-4.3631-3.537-7.9-7.9-7.9s-7.9 3.5369-7.9 7.9z" fill="#e5e5e5" fill-rule="evenodd"/><path d="m492.9255 117.4671c0 4.363 3.537 7.9 7.9 7.9s7.9-3.537 7.9-7.9c0-4.3631-3.537-7.9-7.9-7.9s-7.9 3.5369-7.9 7.9z" fill="#e5e5e5" fill-rule="evenodd"/><path d="m475.1755 109.3602c0 4.363 3.537 7.9 7.9 7.9s7.9-3.537 7.9-7.9c0-4.3631-3.537-7.9-7.9-7.9s-7.9 3.5369-7.9 7.9z" fill="#e5e5e5" fill-rule="evenodd"/><path d="m456.1757 104.8c0 4.363 3.537 7.9 7.9 7.9s7.9-3.537 7.9-7.9c0-4.3631-3.537-7.9-7.9-7.9s-7.9 3.5369-7.9 7.9z" fill="#e5e5e5" fill-rule="evenodd"/><path d="m436.676 102.7733c0 4.363 3.537 7.9 7.9 7.9s7.9-3.537 7.9-7.9c0-4.3631-3.537-7.9-7.9-7.9s-7.9 3.5369-7.9 7.9z" fill="#e5e5e5" fill-rule="evenodd"/><path d="m417.176 102.5199c0 4.363 3.537 7.9 7.9 7.9s7.9-3.537 7.9-7.9c0-4.3631-3.537-7.9-7.9-7.9s-7.9 3.5369-7.9 7.9z" fill="#e5e5e5" fill-rule="evenodd"/><path d="m358.926 107.3334c0 4.363 3.537 7.9 7.9 7.9s7.9-3.537 7.9-7.9c0-4.3631-3.537-7.9-7.9-7.9s-7.9 3.5369-7.9 7.9z" fill="#e5e5e5" fill-rule="evenodd"/><path d="m339.426 105.56c0 4.363 3.537 7.9 7.9 7.9s7.9-3.537 7.9-7.9c0-4.3631-3.537-7.9-7.9-7.9s-7.9 3.5369-7.9 7.9z" fill="#e5e5e5" fill-rule="evenodd"/><path d="m408.3868 202.8059-14.4112-18.7074 16.443-41.7405-8.3272-32.7136-42.073-25.2277c91.8894 13.3007 65.4057 75.463 65.7776 106.4466z" fill="#eac102"/><path d="m393.9755 184.0985 14.4112 18.7074-7.2401 1.1725-15.274-19.9907c37.5392-41.9535 16.695-85.7168-27.063-91.0026-31.409-3.7941-51.936 13.8578-83.81 10.6525v-8.5903c24.666 3.6836 57.2934-14.5843 85.0185-10.6305 58.73 8.3753 65.2022 63.3784 33.9574 99.6817z" fill="#eac102"/><path d="m393.9755 184.0985-8.1028-.1109" fill="none"/><path d="m276.8498 87.5168c0 4.363 3.537 7.9 7.9 7.9s7.9-3.537 7.9-7.9c0-4.3631-3.537-7.9-7.9-7.9s-7.9 3.5369-7.9 7.9z" fill="#e5e5e5" fill-rule="evenodd"/><path d="m286.5063 86.7001c0 4.363 3.537 7.9 7.9 7.9s7.9-3.537 7.9-7.9c0-4.3631-3.537-7.9-7.9-7.9s-7.9 3.5369-7.9 7.9z" fill="#e5e5e5" fill-rule="evenodd"/><path d="m294.5698 84.9378c0 4.363 3.537 7.9 7.9 7.9s7.9-3.537 7.9-7.9c0-4.3631-3.537-7.9-7.9-7.9s-7.9 3.5369-7.9 7.9z" fill="#e5e5e5" fill-rule="evenodd"/><path d="m302.6618 82.6821c0 4.363 3.537 7.9 7.9 7.9s7.9-3.537 7.9-7.9c0-4.3631-3.537-7.9-7.9-7.9s-7.9 3.5369-7.9 7.9z" fill="#e5e5e5" fill-rule="evenodd"/><path d="m403.6597 185.5969c0 4.363 3.537 7.9 7.9 7.9s7.9-3.537 7.9-7.9c0-4.3631-3.537-7.9-7.9-7.9s-7.9 3.5369-7.9 7.9z" fill="#e5e5e5" fill-rule="evenodd"/><path d="m411.3848 167.3279c0 4.363 3.537 7.9 7.9 7.9s7.9-3.537 7.9-7.9c0-4.3631-3.537-7.9-7.9-7.9s-7.9 3.5369-7.9 7.9z" fill="#e5e5e5" fill-rule="evenodd"/><path d="m415.6028 148.1752c0 4.363 3.537 7.9 7.9 7.9s7.9-3.537 7.9-7.9c0-4.3631-3.537-7.9-7.9-7.9s-7.9 3.5369-7.9 7.9z" fill="#e5e5e5" fill-rule="evenodd"/><path d="m415.0268 129.1979c0 4.363 3.537 7.9 7.9 7.9s7.9-3.537 7.9-7.9c0-4.3631-3.537-7.9-7.9-7.9s-7.9 3.5369-7.9 7.9z" fill="#e5e5e5" fill-rule="evenodd"/><path d="m311.0863 80.7739c0 4.363 3.537 7.9 7.9 7.9s7.9-3.537 7.9-7.9c0-4.3631-3.537-7.9-7.9-7.9s-7.9 3.5369-7.9 7.9z" fill="#e5e5e5" fill-rule="evenodd"/><path d="m319.7868 78.8081c0 4.363 3.537 7.9 7.9 7.9s7.9-3.537 7.9-7.9c0-4.3631-3.537-7.9-7.9-7.9s-7.9 3.5369-7.9 7.9z" fill="#e5e5e5" fill-rule="evenodd"/><path d="m329.0188 77.2376c0 4.363 3.537 7.9 7.9 7.9s7.9-3.537 7.9-7.9c0-4.3631-3.537-7.9-7.9-7.9s-7.9 3.5369-7.9 7.9z" fill="#e5e5e5" fill-rule="evenodd"/><path d="m338.4842 76.1452c0 4.363 3.537 7.9 7.9 7.9s7.9-3.537 7.9-7.9c0-4.3631-3.537-7.9-7.9-7.9s-7.9 3.5369-7.9 7.9z" fill="#e5e5e5" fill-rule="evenodd"/><path d="m349.1798 76.1766c0 4.363 3.537 7.9 7.9 7.9s7.9-3.537 7.9-7.9c0-4.3631-3.537-7.9-7.9-7.9s-7.9 3.5369-7.9 7.9z" fill="#e5e5e5" fill-rule="evenodd"/><path d="m361.1148 78.0827c0 4.363 3.537 7.9 7.9 7.9s7.9-3.537 7.9-7.9c0-4.3631-3.537-7.9-7.9-7.9s-7.9 3.5369-7.9 7.9z" fill="#e5e5e5" fill-rule="evenodd"/><path d="m373.9278 81.7132c0 4.363 3.537 7.9 7.9 7.9s7.9-3.537 7.9-7.9c0-4.3631-3.537-7.9-7.9-7.9s-7.9 3.5369-7.9 7.9z" fill="#e5e5e5" fill-rule="evenodd"/><path d="m387.6538 87.8939c0 4.363 3.537 7.9 7.9 7.9s7.9-3.537 7.9-7.9c0-4.3631-3.537-7.9-7.9-7.9s-7.9 3.5369-7.9 7.9z" fill="#e5e5e5" fill-rule="evenodd"/><path d="m400.0347 98.3347c0 4.363 3.537 7.9 7.9 7.9s7.9-3.537 7.9-7.9c0-4.3631-3.537-7.9-7.9-7.9s-7.9 3.5369-7.9 7.9z" fill="#e5e5e5" fill-rule="evenodd"/><path d="m409.4453 112.4307c0 4.363 3.537 7.9 7.9 7.9s7.9-3.537 7.9-7.9c0-4.3631-3.537-7.9-7.9-7.9s-7.9 3.5369-7.9 7.9z" fill="#e5e5e5" fill-rule="evenodd"/><path d="m38.1744 210.012-14.8362-37.0388 19.4107-41.7457c-34.5966 28.1238-37.7896 59.493-16.5004 95.3926z" fill="#eac102"/><path d="m229.824 101.7599c0 4.363-3.537 7.9-7.9 7.9s-7.9-3.537-7.9-7.9c0-4.3631 3.537-7.9 7.9-7.9s7.9 3.5369 7.9 7.9z" fill="#e5e5e5" fill-rule="evenodd"/><path d="m265.38 97.8108c-32.416 9.9067-67.7551 21.0545-99.77 16.2838-63.6159-9.4797-101.981.1871-122.8611 17.1329-28.0226 22.7426-24.5544 58.5613-8.3899 78.4713l-8.1105 16.9212 7.6257 2.4534 9.7328-19.8185c-32.728-34.8265-17.7717-108.4102 120.838-87.7334 33.376 4.9787 70.105-6.3944 103.326-16.5473z" fill="#eac102"/><path d="m34.359 209.6989 9.248-.4439" fill="none"/><path d="m152.324 103.6853c0 4.363-3.537 7.9-7.9 7.9s-7.9-3.537-7.9-7.9c0-4.3631 3.537-7.9 7.9-7.9s7.9 3.5369 7.9 7.9z" fill="#e5e5e5" fill-rule="evenodd"/><path d="m171.574 105.9654c0 4.363-3.537 7.9-7.9 7.9s-7.9-3.537-7.9-7.9c0-4.3631 3.537-7.9 7.9-7.9s7.9 3.5369 7.9 7.9z" fill="#e5e5e5" fill-rule="evenodd"/><path d="m248.824 96.8957c0 4.363-3.537 7.9-7.9 7.9s-7.9-3.537-7.9-7.9c0-4.3631 3.537-7.9 7.9-7.9s7.9 3.5369 7.9 7.9z" fill="#e5e5e5" fill-rule="evenodd"/><path d="m27.3699 215.5151c0 4.3631-3.537 7.9-7.9 7.9s-7.9-3.5369-7.9-7.9 3.537-7.9 7.9-7.9 7.9 3.5369 7.9 7.9z" fill="#e5e5e5" fill-rule="evenodd"/><path d="m19.8714 197.6768c0 4.3631-3.537 7.9-7.9 7.9s-7.9-3.5369-7.9-7.9 3.537-7.9 7.9-7.9 7.9 3.5369 7.9 7.9z" fill="#e5e5e5" fill-rule="evenodd"/><path d="m16.3 179.0298c0 4.3631-3.537 7.9-7.9 7.9s-7.9-3.5369-7.9-7.9 3.537-7.9 7.9-7.9 7.9 3.5369 7.9 7.9z" fill="#e5e5e5" fill-rule="evenodd"/><path d="m19.5744 160.2819c0 4.3631-3.537 7.9-7.9 7.9s-7.9-3.5369-7.9-7.9 3.537-7.9 7.9-7.9 7.9 3.5369 7.9 7.9z" fill="#e5e5e5" fill-rule="evenodd"/><path d="m29.0745 143.5614c0 4.363-3.537 7.9-7.9 7.9s-7.9-3.537-7.9-7.9c0-4.3631 3.537-7.9 7.9-7.9s7.9 3.5369 7.9 7.9z" fill="#e5e5e5" fill-rule="evenodd"/><path d="m41.5745 128.6142c0 4.363-3.537 7.9-7.9 7.9s-7.9-3.537-7.9-7.9c0-4.3631 3.537-7.9 7.9-7.9s7.9 3.5369 7.9 7.9z" fill="#e5e5e5" fill-rule="evenodd"/><path d="m57.0745 117.4671c0 4.363-3.537 7.9-7.9 7.9s-7.9-3.537-7.9-7.9c0-4.3631 3.537-7.9 7.9-7.9s7.9 3.5369 7.9 7.9z" fill="#e5e5e5" fill-rule="evenodd"/><path d="m74.8245 109.3602c0 4.363-3.537 7.9-7.9 7.9s-7.9-3.537-7.9-7.9c0-4.3631 3.537-7.9 7.9-7.9s7.9 3.5369 7.9 7.9z" fill="#e5e5e5" fill-rule="evenodd"/><path d="m93.8243 104.8c0 4.363-3.537 7.9-7.9 7.9s-7.9-3.537-7.9-7.9c0-4.3631 3.537-7.9 7.9-7.9s7.9 3.5369 7.9 7.9z" fill="#e5e5e5" fill-rule="evenodd"/><path d="m113.324 102.7733c0 4.363-3.537 7.9-7.9 7.9s-7.9-3.537-7.9-7.9c0-4.3631 3.537-7.9 7.9-7.9s7.9 3.5369 7.9 7.9z" fill="#e5e5e5" fill-rule="evenodd"/><path d="m132.824 102.5199c0 4.363-3.537 7.9-7.9 7.9s-7.9-3.537-7.9-7.9c0-4.3631 3.537-7.9 7.9-7.9s7.9 3.5369 7.9 7.9z" fill="#e5e5e5" fill-rule="evenodd"/><path d="m191.074 107.3334c0 4.363-3.537 7.9-7.9 7.9s-7.9-3.537-7.9-7.9c0-4.3631 3.537-7.9 7.9-7.9s7.9 3.5369 7.9 7.9z" fill="#e5e5e5" fill-rule="evenodd"/><path d="m210.574 105.56c0 4.363-3.537 7.9-7.9 7.9s-7.9-3.537-7.9-7.9c0-4.3631 3.537-7.9 7.9-7.9s7.9 3.5369 7.9 7.9z" fill="#e5e5e5" fill-rule="evenodd"/><path d="m141.6133 202.8059 14.4112-18.7074-16.443-41.7405 8.3272-32.7136 42.073-25.2277c-91.8894 13.3007-65.4057 75.463-65.7776 106.4466z" fill="#eac102"/><path d="m156.0245 184.0985-14.4112 18.7074 7.2401 1.1725 15.274-19.9907c-37.5392-41.9535-16.695-85.7168 27.063-91.0026 31.409-3.7941 51.936 13.8578 83.81 10.6525v-8.5903c-24.666 3.6836-57.2934-14.5843-85.0185-10.6305-58.73 8.3753-65.2022 63.3784-33.9574 99.6817z" fill="#eac102"/><path d="m156.0245 184.0985 8.1028-.1109" fill="none"/><path d="m273.1502 87.5168c0 4.363-3.537 7.9-7.9 7.9s-7.9-3.537-7.9-7.9c0-4.3631 3.537-7.9 7.9-7.9s7.9 3.5369 7.9 7.9z" fill="#e5e5e5" fill-rule="evenodd"/><path d="m263.4938 86.7001c0 4.363-3.537 7.9-7.9 7.9s-7.9-3.537-7.9-7.9c0-4.3631 3.537-7.9 7.9-7.9s7.9 3.5369 7.9 7.9z" fill="#e5e5e5" fill-rule="evenodd"/><path d="m255.4303 84.9378c0 4.363-3.537 7.9-7.9 7.9s-7.9-3.537-7.9-7.9c0-4.3631 3.537-7.9 7.9-7.9s7.9 3.5369 7.9 7.9z" fill="#e5e5e5" fill-rule="evenodd"/><path d="m247.3382 82.6821c0 4.363-3.537 7.9-7.9 7.9s-7.9-3.537-7.9-7.9c0-4.3631 3.537-7.9 7.9-7.9s7.9 3.5369 7.9 7.9z" fill="#e5e5e5" fill-rule="evenodd"/><path d="m146.3403 185.5969c0 4.363-3.537 7.9-7.9 7.9s-7.9-3.537-7.9-7.9c0-4.3631 3.537-7.9 7.9-7.9s7.9 3.5369 7.9 7.9z" fill="#e5e5e5" fill-rule="evenodd"/><path d="m138.6153 167.3279c0 4.363-3.537 7.9-7.9 7.9s-7.9-3.537-7.9-7.9c0-4.3631 3.537-7.9 7.9-7.9s7.9 3.5369 7.9 7.9z" fill="#e5e5e5" fill-rule="evenodd"/><path d="m134.3972 148.1752c0 4.363-3.537 7.9-7.9 7.9s-7.9-3.537-7.9-7.9c0-4.3631 3.537-7.9 7.9-7.9s7.9 3.5369 7.9 7.9z" fill="#e5e5e5" fill-rule="evenodd"/><path d="m134.9732 129.1979c0 4.363-3.537 7.9-7.9 7.9s-7.9-3.537-7.9-7.9c0-4.3631 3.537-7.9 7.9-7.9s7.9 3.5369 7.9 7.9z" fill="#e5e5e5" fill-rule="evenodd"/><path d="m238.9137 80.7739c0 4.363-3.537 7.9-7.9 7.9s-7.9-3.537-7.9-7.9c0-4.3631 3.537-7.9 7.9-7.9s7.9 3.5369 7.9 7.9z" fill="#e5e5e5" fill-rule="evenodd"/><path d="m230.2132 78.8081c0 4.363-3.537 7.9-7.9 7.9s-7.9-3.537-7.9-7.9c0-4.3631 3.537-7.9 7.9-7.9s7.9 3.5369 7.9 7.9z" fill="#e5e5e5" fill-rule="evenodd"/><path d="m220.9812 77.2376c0 4.363-3.537 7.9-7.9 7.9s-7.9-3.537-7.9-7.9c0-4.3631 3.537-7.9 7.9-7.9s7.9 3.5369 7.9 7.9z" fill="#e5e5e5" fill-rule="evenodd"/><path d="m211.5158 76.1452c0 4.363-3.537 7.9-7.9 7.9s-7.9-3.537-7.9-7.9c0-4.3631 3.537-7.9 7.9-7.9s7.9 3.5369 7.9 7.9z" fill="#e5e5e5" fill-rule="evenodd"/><path d="m200.8202 76.1766c0 4.363-3.537 7.9-7.9 7.9s-7.9-3.537-7.9-7.9c0-4.3631 3.537-7.9 7.9-7.9s7.9 3.5369 7.9 7.9z" fill="#e5e5e5" fill-rule="evenodd"/><path d="m188.8852 78.0827c0 4.363-3.537 7.9-7.9 7.9s-7.9-3.537-7.9-7.9c0-4.3631 3.537-7.9 7.9-7.9s7.9 3.5369 7.9 7.9z" fill="#e5e5e5" fill-rule="evenodd"/><path d="m176.0723 81.7132c0 4.363-3.537 7.9-7.9 7.9s-7.9-3.537-7.9-7.9c0-4.3631 3.537-7.9 7.9-7.9s7.9 3.5369 7.9 7.9z" fill="#e5e5e5" fill-rule="evenodd"/><path d="m162.3463 87.8939c0 4.363-3.537 7.9-7.9 7.9s-7.9-3.537-7.9-7.9c0-4.3631 3.537-7.9 7.9-7.9s7.9 3.5369 7.9 7.9z" fill="#e5e5e5" fill-rule="evenodd"/><path d="m149.9653 98.3347c0 4.363-3.537 7.9-7.9 7.9s-7.9-3.537-7.9-7.9c0-4.3631 3.537-7.9 7.9-7.9s7.9 3.5369 7.9 7.9z" fill="#e5e5e5" fill-rule="evenodd"/><path d="m140.5547 112.4307c0 4.363-3.537 7.9-7.9 7.9s-7.9-3.537-7.9-7.9c0-4.3631 3.537-7.9 7.9-7.9s7.9 3.5369 7.9 7.9z" fill="#e5e5e5" fill-rule="evenodd"/><path d="m271.0505 46.5759v-26.8902h-12.191v-7.9764h12.191v-11.2093h7.8991v11.2093h12.191v7.9764h-12.191v26.8902z" fill="#eac102"/><path d="m296.75 58.6988c0 12.0122-9.7378 21.75-21.75 21.75s-21.75-9.7378-21.75-21.75c0-12.0123 9.7378-21.75 21.75-21.75s21.75 9.7378 21.75 21.75z" fill="#0071bc" fill-rule="evenodd"/><path d="m288.3606 90.93c6.0445 22.5757 2.666 64.7046 11.893 89.4744l-25.2536 26.3162-25.2536-26.3162c9.227-24.7698 5.8485-66.8987 11.893-89.4744 2.4425-9.1228 8.6686-13.4459 13.3606-13.4459s10.9181 4.3231 13.3606 13.4459z" fill="#eac102"/><path d="m294.5329 178.9472c-8.811-28.1332-4.5017-58.3255-10.2998-85.5344-1.0169-4.772-4.6871-10.8304-9.2331-10.8304s-8.2162 6.0584-9.2331 10.8304c-5.7981 27.209-1.4888 57.4013-10.2998 85.5344l19.5329 20.8065z" fill="none"/><path d="m249.7464 180.4044 5.7208-1.4572" fill="none"/><path d="m300.2536 180.4044-5.7208-1.4572" fill="none"/><path d="m282.9 73.1932c0 4.363-3.537 7.9-7.9 7.9s-7.9-3.537-7.9-7.9c0-4.3631 3.537-7.9 7.9-7.9s7.9 3.5369 7.9 7.9z" fill="#e5e5e5" fill-rule="evenodd"/><path d="m282.9 75.7489c0 4.363-3.537 7.9-7.9 7.9s-7.9-3.537-7.9-7.9c0-4.3631 3.537-7.9 7.9-7.9s7.9 3.5369 7.9 7.9z" fill="#e5e5e5" fill-rule="evenodd"/><path d="m282.9 79.5463c0 4.363-3.537 7.9-7.9 7.9s-7.9-3.537-7.9-7.9c0-4.3631 3.537-7.9 7.9-7.9s7.9 3.5369 7.9 7.9z" fill="#e5e5e5" fill-rule="evenodd"/><path d="m282.9 86.3931c0 4.363-3.537 7.9-7.9 7.9s-7.9-3.537-7.9-7.9c0-4.3631 3.537-7.9 7.9-7.9s7.9 3.5369 7.9 7.9z" fill="#e5e5e5" fill-rule="evenodd"/><path d="m282.9 179.5613c0 4.3631-3.537 7.9-7.9 7.9s-7.9-3.5369-7.9-7.9 3.537-7.9 7.9-7.9 7.9 3.5369 7.9 7.9z" fill="#e5e5e5" fill-rule="evenodd"/><path d="m282.9 162.0736c0 4.3631-3.537 7.9-7.9 7.9s-7.9-3.5369-7.9-7.9 3.537-7.9 7.9-7.9 7.9 3.5369 7.9 7.9z" fill="#e5e5e5" fill-rule="evenodd"/><path d="m282.9 143.6627c0 4.363-3.537 7.9-7.9 7.9s-7.9-3.537-7.9-7.9c0-4.3631 3.537-7.9 7.9-7.9s7.9 3.5369 7.9 7.9z" fill="#e5e5e5" fill-rule="evenodd"/><path d="m282.9 95.1193c0 4.363-3.537 7.9-7.9 7.9s-7.9-3.537-7.9-7.9c0-4.3631 3.537-7.9 7.9-7.9s7.9 3.5369 7.9 7.9z" fill="#e5e5e5" fill-rule="evenodd"/><path d="m282.9 107.5584c0 4.363-3.537 7.9-7.9 7.9s-7.9-3.537-7.9-7.9c0-4.3631 3.537-7.9 7.9-7.9s7.9 3.5369 7.9 7.9z" fill="#e5e5e5" fill-rule="evenodd"/><path d="m282.9 124.9336c0 4.363-3.537 7.9-7.9 7.9s-7.9-3.537-7.9-7.9c0-4.3631 3.537-7.9 7.9-7.9s7.9 3.5369 7.9 7.9z" fill="#e5e5e5" fill-rule="evenodd"/><path d="m262.8059 220.0294 5.9561 5.6694v12.5745l-5.9561 5.6704c-5.0807 4.837-10.1051 2.1442-22.1737 7.1856-.4947-3.8079-.279-6.9575 2.3269-9.7609-7.8194-.4714-14.0504-4.5216-19.1324-9.3824 5.0821-4.8598 11.3132-8.911 19.1324-9.3825-2.6058-2.8035-2.8215-5.9522-2.3269-9.7599 12.0687 5.0405 17.0921 2.3488 22.1737 7.1858z" fill="#eac102"/><path d="m265.8552 231.9859h-34.8042" fill="none"/><path d="m267.3653 235.9967c-10.2044 6.3639-14.4016 4.4882-21.9439 9.7922" fill="none"/><path d="m267.3653 227.9752c-10.2044-6.3639-14.4016-4.4883-21.9439-9.7922" fill="none"/><path d="m281.2492 225.7099 5.636-5.9925c4.8076-5.1117 2.1312-10.1657 7.1421-22.3081-3.7847-.4977-6.9153-.2807-9.7017 2.341-.4686-7.8671-4.4944-14.1362-9.3256-19.2503-4.8312 5.1141-8.857 11.3832-9.3256 19.2503-2.7864-2.6217-5.9169-2.8387-9.7017-2.341 5.0109 12.1424 2.3345 17.1964 7.1421 22.3081l5.636 5.9925z" fill="#eac102"/><path d="m275 222.7863v-35.0168" fill="none"/><path d="m271.0135 224.3046c-6.3263-10.2667-4.4611-14.4895-9.7328-22.0769" fill="none"/><path d="m100.0938 302.7813c-8.0052-3.422-21.7351-20.1327-28.1498-28.8125l-8 6c10.3764 13.7807 18.7019 22.4544 25.0248 27.5313 3.1615 2.5384 5.9207 4.2391 8.8125 5.0938z" fill="#eac102"/><path d="m449.9063 302.7813c8.0052-3.422 21.735-20.1327 28.1497-28.8125l8 6c-10.3764 13.7807-18.7018 22.4544-25.0247 27.5313-3.1615 2.5384-5.9207 4.2391-8.8125 5.0938z" fill="#eac102"/><path d="m280 234.9324v16.654c0 33.4354 51.1844 34.4812 54.5938-.2213.2475-2.5189 3.0219-4.3753 5.5072-4.074 2.4854.3013 4.7003 2.7619 4.399 5.2749-4.1358 34.496 41.594 36.4475 48.1875 2.4966l3.0625-15.7692c.4944-2.5455 3.3114-4.337 5.8296-3.8423s4.4764 3.2244 3.983 5.77l-3.0625 15.8007c-7.0147 36.1916 28.6416 34.2673 45.3438 5.5303 1.3295-2.2875 4.6253-3.1036 6.8752-1.7384 2.25 1.3652 3.0207 4.6491 1.7185 6.9526-19.3323 34.1985 5.7024 27.7663 21.2188 6.6995 3.7396-5.0773 9.8171-13.3288 11.2188-15.2319 1.5678-2.1287 4.9132-2.6161 7.016-1.0275 2.1027 1.5885 2.5859 4.9685 1.0153 7.095-3.75 5.0773-2.0598 2.7888-11.25 15.2319-19.4649 26.3545-44.7446 27.7583-46.0313 5.8937-16.952 12.3658-39.8595 10.5176-46.4063-10.0018-16.5868 19.1242-46.8885 16.5074-56-5.1827-17.3932 22.7946-49.8176 19.2712-62.219-1.0875-12.4014 20.3587-44.8258 23.8821-62.219 1.0875-9.1115 21.6901-39.4132 24.3069-56 5.1827-6.5468 20.5194-29.4543 22.3676-46.4063 10.0018-1.2867 21.8646-26.5664 20.4608-46.0313-5.8937-9.1902-12.4431-7.5-10.1546-11.25-15.2319-1.5706-2.1265-1.0874-5.5065 1.0153-7.095 2.1028-1.5886 5.4482-1.1012 7.016 1.0275 1.4017 1.9031 7.4792 10.1546 11.2188 15.2319 15.5164 21.0668 40.5511 27.499 21.2188-6.6995-1.3022-2.3035-.5315-5.5874 1.7185-6.9526 2.2499-1.3652 5.5457-.5491 6.8752 1.7384 16.7022 28.737 52.3585 30.6613 45.3438-5.5303l-3.0625-15.8007c-.4934-2.5456 1.4648-5.2753 3.983-5.77s5.3352 1.2968 5.8296 3.8423l3.0625 15.7692c6.5935 33.9509 52.3233 31.9994 48.1875-2.4966-.3013-2.513 1.9136-4.9736 4.399-5.2749 2.4853-.3013 5.2597 1.5551 5.5072 4.074 3.4094 34.7025 54.5938 33.6567 54.5938.2213v-16.654c0-2.6584 2.3504-5.1511 5.0001-5.1511s5.0001 2.4927 5.0001 5.1511z" fill="#eac102"/><path d="m275.0001 332.2117c-139.8158 0-182.5692-15.8896-182.5692-18.2644s42.7534-18.2645 182.5692-18.2645 182.5693 15.8897 182.5693 18.2645c0 2.3747-42.7535 18.2644-182.5693 18.2644zm-137.8858 3.1594c-32.5558-4.273-56.6142-10.9941-56.6142-21.4237 0-24.2391 129.9445-28.4474 194.5-28.4474s194.5 4.2083 194.5 28.4474c0 10.4296-24.0585 17.1507-56.6143 21.4237z" fill="#eac102" fill-rule="evenodd"/><path d="m171.4966 335.3715-69.0588 14.6048c-2.583-12.3267-5.022-23.5271-10.9304-35.0537-3.1408-6.1274 59.7743-20.0364 183.4926-20.0364 123.7184 0 186.6334 13.9091 183.4926 20.0364-5.9084 11.5267-8.3474 22.7269-10.9304 35.0537l-69.0588-14.6048z" fill="#eac102"/><path d="m90.9821 331.6525 3.9988-8.9213 13.0006 2.2327-8.6657 11.4659z" fill="#ed1c24"/><path d="m90.9821 331.6525 16.9994-6.6887" fill="none"/><path d="m152.7763 310.281 35.8427-3.3618c3.5853-.3363 6.7423 2.2793 7.0786 5.8646s-2.2793 6.7423-5.8646 7.0786l-35.8427 3.3618c-3.5853.3363-6.7423-2.2793-7.0786-5.8646s2.2793-6.7423 5.8646-7.0786z" fill="#008f4c" fill-rule="evenodd"/><path d="m133.8496 320.5115c0 4.363-3.537 7.9-7.9 7.9s-7.9-3.537-7.9-7.9c0-4.3631 3.537-7.9 7.9-7.9s7.9 3.5369 7.9 7.9z" fill="#e5e5e5" fill-rule="evenodd"/><path d="m228.4747 311.9843c0 4.363-3.537 7.9-7.9 7.9s-7.9-3.537-7.9-7.9c0-4.3631 3.537-7.9 7.9-7.9s7.9 3.5369 7.9 7.9z" fill="#e5e5e5" fill-rule="evenodd"/><path d="m443.4893 353c0 2.2122-39.4563 17.0141-168.4893 17.0141s-168.4893-14.8019-168.4893-17.0141c0-2.2123 39.4563-17.0142 168.4893-17.0142s168.4893 14.8018 168.4893 17.0142zm11.0107 0c0 22.5798-119.923 26.5-179.5 26.5s-179.5-3.9202-179.5-26.5 119.923-26.5 179.5-26.5 179.5 3.9203 179.5 26.5z" fill="#eac102" fill-rule="evenodd"/><path d="m185.2839 253.8207c-10.8666-3.6675-16.1972-.5282-22.1095-4.985l-6.7066-5.0556-2.5897-12.524 4.3828-6.1852c3.7221-5.2528 11.1566-3.9421 19.1506-9.3239 1.2432 3.7362 1.6887 6.8869-.1595 9.9255 7.3728-.2918 14.0092 3.1557 19.7375 7.4916-3.7307 5.3241-8.6974 9.9548-15.8756 11.1834 3 2.5329 3.8489 5.6411 4.17 9.4732z" fill="#eac102"/><path d="m140.4809 251.206 4.3767-6.2136-2.5897-12.5239-6.7006-5.0274c-5.7701-4.3292-11.6041-1.4315-22.1155-5.0122.3221 3.8311 1.1699 6.9404 4.1711 9.4722-7.1792 1.2286-12.1399 5.8875-15.8705 11.2116 5.7284 4.3359 12.3587 7.755 19.7315 7.4644-1.8482 3.0387-1.4027 6.1894-.1585 9.9245 9.9214-5.9603 15.4605-4.0499 19.1555-9.2956z" fill="#eac102"/><path d="m140.9023 239.2272c-15.1089-.1817-19.3803 1.7677-32.6861 3.2355" fill="none"/><path d="m140.4337 234.3179c-9.5934-6.0026-16.3391-3.4828-22.4567-7.7702" fill="none"/><path d="m142.2127 244.4161c-6.5421 6.4094-11.5489 4.1592-17.225 9.5822" fill="none"/><path d="m135.7701 227.0959 6.4778 5.4039 11.6623-1.2185 3.9894-6.4972c3.3736-5.4942-.0903-11.6639 2.0941-22.8533-3.6263-.1272-6.4959.3927-8.5518 3.2678-2.0519-7.7682-7.7902-14.2613-14.3895-17.7805-1.9616 6.7355-4.9647 12.8249-2.053 20.5234-3.1326-2.3331-7.0388-3.1699-10.4603-2.3078 6.783 10.4423 5.3054 16.519 11.231 21.4622z" fill="#eac102"/><path d="m151.6465 228.9383c3.0603-7.2776.3392-14.3017 4.2524-22.4535" fill="none"/><path d="m143.6355 230.4393c-7.7692-7.8954-7.3217-15.0861-13.062-20.9019" fill="none"/><path d="m147.4785 228.9867c-4.9266-13.1903-3.7406-23.2591-8.2709-34.8472" fill="none"/><path d="m155.1975 232.9925c6.507-7.2059 12.167-5.2071 18.702-11.1874" fill="none"/><path d="m156.7958 241.5319c9.3414 3.7311 12.4249 1.4638 22.4216 7.3886" fill="none"/><path d="m157.9206 237.4494c14.1337-3.8877 19.9613-1.2185 32.8597-3.5717" fill="none"/><path d="m159.1427 238.1086c0 5.5781-4.5219 10.1-10.1 10.1s-10.1-4.5219-10.1-10.1 4.5219-10.1 10.1-10.1 10.1 4.5219 10.1 10.1z" fill="#ed1c24" fill-rule="evenodd"/><path d="m44.2421 251.7354c-6.9071-9.8558-12.6261-16.1839-33.7421-18.0121 7.2242-10.9269 22.2693-14.0897 32.055-4.1188.9257-2.7287 1.4965-3.6181 4.084-6.1389 2.3071 7.1161 12.5812 12.4927 8.5051 25.2347l-4.0056 12.5219z" fill="#eac102"/><path d="m49.4292 259.187c3.8096-6.8364 4.5595-10.5908 7.4141-14.3119 2.8499-3.715 7.5109-6.9787 10.8958-9.8962 1.4854 3.4273 2.3343 6.4215 1.6259 9.6984 4.8897-1.5425 9.9387.6844 14.5341 3.931-1.5709 5.8239-4.09 11.1833-8.6864 13.6053 2.4529 1.9555 3.5641 4.8397 4.4484 8.5183 0 0-10.5557-.8544-15.1514.2019-5.2482 1.2062-9.2341-1.0487-10.0958-1.8998z" fill="#eac102"/><path d="m48.319 257.3831c-.6153-5.2111 1.1682-9.9124.8501-14.0958-.5819-7.6541-3.075-10.1759-2.7454-14.1846" fill="none"/><path d="m52.0298 263.6723c8.2134-6.6819 15.7327-7.9014 25.62-13.5456" fill="none"/><path d="m50.6091 259.9715c3.5924-6.0782 10.9851-9.4662 14.9751-18.9212" fill="none"/><path d="m53.1785 267.1097c7.0653.9722 11.3499-3.1477 19.8024-.0606" fill="none"/><path d="m54.4139 269.034c-1.3223.6355-2.7727 1.0058-4.3378 1.0058-5.5781 0-10.1-4.5219-10.1-10.1 0-3.4008 1.6898-6.3742 4.266-8.2044 5.0748 3.2253 9.3857 11.0399 10.1718 17.2986z" fill="#ed1c24" fill-rule="evenodd"/><path d="m364.7161 253.8207c10.8666-3.6675 16.1972-.5282 22.1095-4.985l6.7066-5.0556 2.5897-12.524-4.3828-6.1852c-3.7221-5.2528-11.1566-3.9421-19.1506-9.3239-1.2432 3.7362-1.6887 6.8869.1595 9.9255-7.3728-.2918-14.0092 3.1557-19.7375 7.4916 3.7307 5.3241 8.6974 9.9548 15.8756 11.1834-3 2.5329-3.8489 5.6411-4.17 9.4732z" fill="#eac102"/><path d="m407.7321 232.4685 6.7006-5.0274c5.7701-4.3292 11.6041-1.4315 22.1155-5.0122-.3221 3.8311-1.1699 6.9404-4.1711 9.4722 7.1792 1.2286 12.1399 5.8875 15.8705 11.2116-5.7284 4.3359-12.3587 7.755-19.7315 7.4644 1.8482 3.0387 1.4027 6.1894.1585 9.9245-9.9214-5.9603-15.4605-4.0499-19.1555-9.2956l-4.3767-6.2136z" fill="#eac102"/><path d="m409.0977 239.2272c15.1089-.1817 19.3803 1.7677 32.6861 3.2355" fill="none"/><path d="m409.5663 234.3179c9.5934-6.0026 16.3391-3.4828 22.4567-7.7702" fill="none"/><path d="m407.7873 244.4161c6.5421 6.4094 11.5489 4.1592 17.225 9.5822" fill="none"/><path d="m396.0898 231.2813-3.9894-6.4972c-3.3736-5.4942.0903-11.6639-2.0941-22.8533 3.6263-.1272 6.4959.3927 8.5518 3.2678 2.0519-7.7682 7.7902-14.2613 14.3895-17.7805 1.9616 6.7355 4.9647 12.8249 2.053 20.5234 3.1326-2.3331 7.0388-3.1699 10.4603-2.3078-6.783 10.4423-5.3054 16.519-11.231 21.4622l-6.4778 5.4039z" fill="#eac102"/><path d="m398.3535 228.9383c-3.0603-7.2776-.3392-14.3017-4.2524-22.4535" fill="none"/><path d="m406.3645 230.4393c7.7692-7.8954 7.3217-15.0861 13.062-20.9019" fill="none"/><path d="m402.5215 228.9867c4.9266-13.1903 3.7406-23.2591 8.2709-34.8472" fill="none"/><path d="m394.8025 232.9925c-6.507-7.2059-12.167-5.2071-18.702-11.1874" fill="none"/><path d="m393.2042 241.5319c-9.3414 3.7311-12.4249 1.4638-22.4216 7.3886" fill="none"/><path d="m392.0794 237.4494c-14.1337-3.8877-19.9613-1.2185-32.8597-3.5717" fill="none"/><path d="m390.8573 238.1086c0 5.5781 4.5219 10.1 10.1 10.1s10.1-4.5219 10.1-10.1-4.5219-10.1-10.1-10.1-10.1 4.5219-10.1 10.1z" fill="#ed1c24" fill-rule="evenodd"/><path d="m505.7579 251.7354c6.9071-9.8558 12.6261-16.1839 33.7421-18.0121-7.2242-10.9269-22.2693-14.0897-32.055-4.1188-.9257-2.7287-1.4965-3.6181-4.084-6.1389-2.3071 7.1161-12.5812 12.4927-8.5051 25.2347l4.0056 12.5219z" fill="#eac102"/><path d="m500.5708 259.187c-3.8096-6.8364-4.5595-10.5908-7.4141-14.3119-2.8499-3.715-7.5109-6.9787-10.8958-9.8962-1.4854 3.4273-2.3343 6.4215-1.6259 9.6984-4.8897-1.5425-9.9388.6844-14.5341 3.931 1.5709 5.8239 4.09 11.1833 8.6864 13.6053-2.4529 1.9555-3.5641 4.8397-4.4484 8.5183 0 0 10.5557-.8544 15.1514.2019 5.2482 1.2062 9.2341-1.0488 10.0958-1.8999z" fill="#eac102"/><path d="m501.681 257.3831c.6153-5.2111-1.1682-9.9124-.8501-14.0958.5819-7.6541 3.075-10.1759 2.7454-14.1846" fill="none"/><path d="m497.9702 263.6723c-8.2134-6.6819-15.7327-7.9014-25.62-13.5456" fill="none"/><path d="m499.3909 259.9715c-3.5924-6.0782-10.9851-9.4662-14.9751-18.9212" fill="none"/><path d="m496.8215 267.1097c-7.0653.9722-11.3499-3.1477-19.8024-.0606" fill="none"/><path d="m495.5861 269.034c1.3223.6355 2.7727 1.0058 4.3378 1.0058 5.5781 0 10.1-4.5219 10.1-10.1 0-3.4008-1.6898-6.3742-4.266-8.2044-5.0748 3.2253-9.3857 11.0399-10.1718 17.2986z" fill="#ed1c24" fill-rule="evenodd"/><path d="m287.1941 220.0294-5.9561 5.6694v12.5745l5.9561 5.6704c5.0807 4.837 10.1051 2.1442 22.1737 7.1856.4947-3.8079.279-6.9575-2.3269-9.7609 7.8194-.4714 14.0504-4.5216 19.1324-9.3824-5.0821-4.8598-11.3132-8.911-19.1324-9.3825 2.6058-2.8035 2.8215-5.9522 2.3269-9.7599-12.0687 5.0405-17.0921 2.3488-22.1737 7.1858z" fill="#eac102"/><path d="m284.1448 231.9859h34.8042" fill="none"/><path d="m282.6347 235.9967c10.2044 6.3639 14.4016 4.4882 21.9439 9.7922" fill="none"/><path d="m282.6347 227.9752c10.2044-6.3639 14.4016-4.4883 21.9439-9.7922" fill="none"/><path d="m278.9865 224.3046c6.3263-10.2667 4.4611-14.4895 9.7328-22.0769" fill="none"/><path d="m285.1 231.9859c0 5.5781-4.5219 10.1-10.1 10.1s-10.1-4.5219-10.1-10.1 4.5219-10.1 10.1-10.1 10.1 4.5219 10.1 10.1z" fill="#ed1c24" fill-rule="evenodd"/><path d="m218.046 249.192c0 4.363-3.537 7.9-7.9 7.9s-7.9-3.537-7.9-7.9c0-4.3631 3.537-7.9 7.9-7.9 4.3631 0 7.9 3.5369 7.9 7.9z" fill="#e5e5e5" fill-rule="evenodd"/><path d="m104.7531 262.3266c0 4.363-3.537 7.9-7.9 7.9s-7.9-3.537-7.9-7.9c0-4.3631 3.537-7.9 7.9-7.9s7.9 3.5369 7.9 7.9z" fill="#e5e5e5" fill-rule="evenodd"/><path d="m331.954 249.192c0 4.363 3.537 7.9 7.9 7.9s7.9-3.537 7.9-7.9c0-4.3631-3.537-7.9-7.9-7.9-4.3631 0-7.9 3.5369-7.9 7.9z" fill="#e5e5e5" fill-rule="evenodd"/><path d="m445.2469 262.3266c0 4.363 3.537 7.9 7.9 7.9s7.9-3.537 7.9-7.9c0-4.3631-3.537-7.9-7.9-7.9s-7.9 3.5369-7.9 7.9z" fill="#e5e5e5" fill-rule="evenodd"/><path d="m296.89 63.0594c.853-2.1495.321-8.4285 0-8.7305 0-1.4306-7.563-2.6022-17.598-2.8715v-15.0824c-1.436-.2456-2.863-.3771-4.2921-.3771s-2.8561.1314-4.2921.3771v15.0824c-10.035.2693-17.598 1.4409-17.598 2.8715-.321.302-.853 6.581 0 8.7305 0-1.629 9.796-2.9585 21.8901-2.9585s21.8901 1.3295 21.8901 2.9585z" fill="#eac102"/><path d="m459.0179 331.6525-3.9988-8.9213-13.0006 2.2327 8.6657 11.4659z" fill="#ed1c24"/><path d="m459.0179 331.6525-16.9994-6.6887" fill="none"/><path d="m397.2237 310.281-35.8427-3.3618c-3.5853-.3363-6.7423 2.2793-7.0786 5.8646s2.2793 6.7423 5.8646 7.0786l35.8427 3.3618c3.5853.3363 6.7423-2.2793 7.0786-5.8646s-2.2793-6.7423-5.8646-7.0786z" fill="#008f4c" fill-rule="evenodd"/><path d="m416.1505 320.5115c0 4.363 3.537 7.9 7.9 7.9s7.9-3.537 7.9-7.9c0-4.3631-3.537-7.9-7.9-7.9s-7.9 3.5369-7.9 7.9z" fill="#e5e5e5" fill-rule="evenodd"/><path d="m321.5253 311.9843c0 4.363 3.537 7.9 7.9 7.9s7.9-3.537 7.9-7.9c0-4.3631-3.537-7.9-7.9-7.9s-7.9 3.5369-7.9 7.9z" fill="#e5e5e5" fill-rule="evenodd"/><path d="m255.5889 304.2484-10.0858 6.7241 10.0858 6.7232h38.8224l10.0858-6.7232-10.0858-6.7241z" fill="#ed1c24"/><path d="m255.5889 304.2484 9.3228 6.018-9.3228 7.4293" fill="none"/><path d="m245.503 310.9725 19.4086-.7061h20.1771l19.4085.7061" fill="none"/><path d="m294.4113 304.2484-9.3227 6.018 9.3227 7.4293" fill="none"/></g></g><g transform="matrix(.25 0 0 .25 951.6949 398.3051)"><path d="m25.5 360.5v474.25c0 68.898 55.852 124.75 124.75 124.75h62.375c27.289 0 50.92 17.163 62.375 40 11.455-22.837 35.086-40 62.375-40h62.375c68.898 0 124.75-55.852 124.75-124.75v-474.25z" fill="#eac102"/><path d="m25.5 360.5v299.5h499v-299.5z" fill="#ed1c24"/></g><g transform="matrix(.25 0 0 .25 951.6949 398.3051)"><g><path d="m104.4762 490.8172-28.9762 130.0727h175.7308c5.56 8.8508 20.5065 8.8601 23.7691 8.8601s18.2091-.01 23.7691-8.8601h175.7308l-28.9762-130.0727-170.5238 5.6757z" fill="#e3e4e5"/><path d="m465.3544 615.219c-30.4293-10.1408-159.3566-31.3154-166.5851-.0003-4.6212-6.7367-16.437-5.6985-23.7692-7.2993-7.3323 1.6008-19.148.5626-23.7692 7.2993-7.2285-31.3151-136.1558-10.1405-166.5851.0003l24.1912-122.035c7.9442-7.3598 11.2813-19.3955 12.6334-26.0508 32.3368-14.4729 141.1712-35.7716 153.5301 19.6951 12.3589-55.4667 121.1922-34.168 153.529-19.6951 1.3521 6.6553 4.6902 18.691 12.634 26.0508z" fill="#e3e4e5"/><path d="m84.6457 615.2184c9.1008-8.4528 12.9248-22.2783 14.4739-29.9229" fill="none"/><path d="m275.0001 486.8282.001 121.09" fill="none"/><path d="m121.47 467.1332-22.3505 118.1635c37.0446-16.6233 161.7226-41.0856 175.8809 22.6215 14.1583-63.7071 138.8363-39.2448 175.8809-22.6215l-22.3505-118.1635" fill="none"/><path d="m251.2309 615.2199v5.6706" fill="none"/><path d="m298.7691 615.2199v5.6706" fill="none"/><path d="m465.3547 615.2184c-9.1007-8.4528-12.9248-22.2783-14.4739-29.9229" fill="none"/><path d="m169.3066 465.1877c35.6919 22.4694-6.9217 53.513-29.5641 54.5283-13.7896.6183-16.7474-7.2801-12.3632-16.8644 4.0839-8.9277 14.3666-17.7702 21.6814-25.0393 9.2357-9.1779 15.6566-15.5136 20.2458-12.6245z" fill="#c87137"/><path d="m205.8585 433.7862c5.3343 1.6814 24.8234 14.8505 29.0266 22.7028l-39.7772 39.5979-19.3511-25.3426c-9.0503-11.8525 6.2007-17.2346 13.6051-24.6655 6.7285-6.7526 12.1451-13.6641 16.4965-12.2925z" fill="#c87137"/><path d="m254.1144 415.789 4.9047 36.1256c-19.4092-4.263-29.4463 2.8435-44.2519 3.0502-15.9881.2232-10.3497-23.0848-8.4303-33.0258 2.8104-14.5563 16.631-8.2026 27.2119-8.5188 9.6151-.2873 18.3966-1.5821 20.5657 2.3688z" fill="#c87137"/><path d="m294.5509 392.0764c10.0845 4.9344 18.0991 12.6922 36.552 20.063 17.8561 7.1324 14.3708 45.9106-3.7627 50.6853l-62.8909-3.1678c-11.9755-7.6523-13.8204-29.3516-16.1259-39.0699-3.123-13.1641 31.9243-35.5091 46.2275-28.5105z" fill="#c87137"/><path d="m178.4446 465.7638c5.3343 1.7289 19.4481 15.8137 23.6513 23.8881 5.1108 9.8179 5.2508 32.6728-15.5884 29.8601-9.2787-1.2524-22.4128-1.8407-30.1016-1.6288-13.7972.3804-16.2099-5.4022-11.8256-14.6586 9.2402-19.5086 24.7243-40.4233 33.8643-37.4609z" fill="#c87137"/><path d="m248.3233 446.9855c10.9221-.4935 22.363 2.1253 47.3026 5.8077 13.4783 1.9901 22.9713 19.512 20.4261 32.2063l-110.731 29.5664c-10.3629-3.4285-19.2286-15.3339-2.1501-33.7902 17.7516-19.1837 25.376-32.8966 45.1525-33.7902z" fill="#c87137"/><path d="m304.6036 458.4686c8.3373-3.7564 21.7873-4.1008 34.5887-.3325l8.1358 37.6904-42.5499 6.9792c-10.3488-18.7555-14.9352-37.6865-.1746-44.3371z" fill="#c87137"/><path d="m357.4418 426.3946c14.4972 5.2867 36.3387 19.0203 29.0266 41.7098l-51.6028 23.2308c-6.6002-6.0684-27.5795-31.4988-16.1259-38.5419 10.5414-6.4822 1.219-15.743 12.1973-13.3497 10.627 2.3168 13.8118-17.6777 26.5048-13.0489z" fill="#c87137"/><path d="m244.5606 473.2575c8.6035 3.1242 18.373 12.2107 24.7263 23.7587 5.221 9.49 5.179 28.3526-14.5133 21.1189-14.1165-5.1856-32.0884-1.3463-39.7772 0-13.5881 2.3792-19.6492-5.4495-13.9758-13.7273 13.0029-18.9718 28.308-36.6815 43.5399-31.1504z" fill="#c87137"/><path d="m328.9527 493.0356c13.4823-1.9639 12.2207 16.8721-7.5254 24.2867-12.2731 4.6085-29.7883 1.6257-43.0023-.528-14.7481-2.4037-13.3691-9.2243-13.4382-16.8951-.1499-16.6278 16.3676-11.9852 23.6513-18.479 14.0447-12.5217 5.5929 16.6732 40.3147 11.6154z" fill="#c87137"/><path d="m381.6306 460.6222c14.609 4.981 7.3121 15.3245 33.8643 24.8147 12.8081 4.5778 12.7582 28.4875-5.3753 33.2622-12.6912 3.3417-28.7129-2.0728-41.9273-5.2797-11.3391-2.7519-19.5621 7.3542-25.2639 2.1119-6.6002-6.0684-16.2107-18.7585-9.6755-26.3986 16.2281-18.9718 36.8962-32.4252 48.3776-28.5105z" fill="#c87137"/></g><g><path d="m266.1296 887.6053c-.3375 6.4417 0 24.8027-.405 31.1685-.3662 5.7766-2.0045 7.9967-10.9957 10.4762h11.7269c1.6206 0 3.2384-1.4971 4.8576-1.8682.2723.3271.8923 1.8682 1.9357 1.8682h6.026c1.426 0 1.9901-1.5171 2.9668-1.8682 1.1928.5838 3.5311 1.8682 5.6689 1.8682h7.3607c-7.0472-2.1184-10.835-6.0618-10.996-10.4762-.1228-3.3654.8432-19.0657.4283-21.9751-1.5089-10.5787-.5386-18.0371-1.1176-22.0994-.198-1.389.963-7.428.7699-9.722-.039-.4522 9.2852-4.1266 13.6649-7.5141.7633.3603 15.4641 6.0878 3.4652-2.2556 3.0806-1.344 7.1712-3.0229 7.5484-3.3764-.6166.0261-1.4921-2.648-2.0098-2.4218-5.9855 2.6155-8.1284 3.1547-11.0065 4.8166-2.2261 1.3205-8.3421 2.2-11.8494 4.3601.3146-3.5382-.7977-6.0069.8676-8.3977 1.6663-2.3916 8.3007-6.4331 15.4432-11.2308 10.336 2.0515 13.4036 3.2156 19.0292 2.2009l-.2699-2.441c-4.1883.3408-6.3494-1.5555-13.5347-3.1582 1.9387-1.2165 3.7449-2.2942 5.2794-3.141 6.2807-3.4652 25.2664-6.3797 29.1768-7.9501l-1.3514-3.2592c-1.1037-1.1947-19.6664 3.8546-23.1638 2.3624-4.5056-1.9222 10.5563-17.2113 8.5673-18.0343l-3.5678-1.4765c-3.1486 3.6265-15.1635 22.4837-16.8466 24.1994-4.8283 4.9213-18.2362 12.2265-20.7984 12.2552-.078-8.1915 1.4385-10.2685 1.4339-13.5018 1.6783-1.2379 19.7261-11.0327 22.5548-12.714l-.8039-4.4519c-1.6846.2987-17.3006 10.2087-21.8964 11.5239-.3988-7.5752-1.6809-13.4842.4548-20.2178-.2953-.3729 6.0844-9.3801 7.273-10.3263l-2.2752-10.0112c-1.2887.752-9.181 16.3435-11.3259 15.1431-2.5552-1.4299-10.0719-12.7027-12.0414-15.1431l-5.1504 3.5851c.1914 2.4845 5.6297 11.709 6.6572 13.9594.3164 3.9619 1.4616 8.4711.2719 15.2334 1.0453 6.7434-.2186 9.2763-.1422 13.9272.032 1.894-.1357 5.2815-.856 7.4177-4.151-5.1569-7.6667-6.7909-7.6414-9.8749.028-3.5557-2.55-16.8209-1.8546-18.0187-2.9724-8.5037-10.9241-17.8712-12.2011-19.1664l-3.9936 2.2335c1.8216 1.7675 7.9615 9.5031 9.063 12.5099 2.5333 6.915 3.1449 22.0056 2.7824 21.8617-3.8014-3.087-8.5948-6.3473-12.0054-7.5955-3.2253-5.3651-6.4274-16.4614-10.1083-21.0613l-3.3093-.034v.0003h.0004c2.5858 6.4497 5.346 11.8373 7.4977 19.4658-5.1703.1425-13.7728-.2613-25.5443 5.9734l1.8199 3.696c10.7112-3.6001 22.921-6.6315 30.0052-1.4003 8.8845 3.5614 13.8108 9.0982 19.6625 17.0223 2.9588 4.0067 5.338 2.4795 5.0599 11.0883-.3234 1.2138-8.9301-1.1964-15.8417-3.0714-.8753-2.9002-3.7517-3.7368-4.3658-4.9696l-.6412.2981c-.1938.8396 2.1135 3.0507 2.2046 4.7505l-6.8834.527c-1.9375.1483-5.4515.7508-.3731 1.0775l7.1165.4575c7.7674 3.0004 17.3146 5.4123 18.2936 5.7478-.1076 1.2956-.097 6.9648-.2524 8.5211-.3108 3.135 1.1377 10.1756.4854 22.628z" fill="#c87137"/><path d="m221.7477 799.1577c-1.8951-.5098-2.9658 2.9467-5.4462.0974-2.4322-2.7939-2.8803 8.4761-5.3986 3.6544-1.6837-3.2239-3.016-.7922-5.1801-.2944-1.4425.3318 1.2967-3.4229-1.8691-1.9273-4.232 1.9994-1.6621-4.2736-5.4812-2.5806-3.2184 1.4266-.2706-5.1324-4.7769-3.9883-4.7085 1.1955-4.2166-4.6496-9.0132-4.1297-4.3014.4663 2.2183-6.4506-3.004-4.1764-3.1104 1.3545-2.5446-.968-3.1615-2.986-.5704-1.8661-5.562-3.0483-1.2233-4.1107 4.5637-1.1175-1.3073-2.1432-1.7377-4.1851-.2922-1.3869 6.5013-1.2573 2.201-2.6014-1.377-.4304 1.857-3.7239-1.3435-2.4097-4.6286 1.9008.114-5.1366-3.5568-5.1783-4.5391-.0515-1.7677-4.313.4973-5.1919 1.9106-.7413-7.6911-.1635-4.0507-2.4419 2.5916-1.6221-.3036-1.2282-1.0523-2.2443-2.0015-2.7161 8.5207-1.6724 2.4411-3.0953-5.3883-1.261 2.5316-4.1768 5.4768-3.786 2.1408.284.3394-1.4201 2.9711-2.0206 1.3814-.3152-5.047-2.9404-1.1395-3.898 2.0597-.5048 4.4304-2.2902 1.5031-2.4567-4.7322-.2691 2.5477-4.6192-2.2836-4.1905-3.4627.3072-3.2228-.8531-.5493-2.5012 2.9693-1.8305 5.9211-3.1348 8.3199-.2196 1.7282 2.1003 7.3277-2.378 4.5174-2.0695-3.9476.4333-1.1376-3.102-2.475-2.8105-4.3336.9442-5.0321-3.6586-.802-3.7116 2.8763-.036-.195-4.0048 3.0856-2.1871 2.0451 1.1332 4.9049-1.4329 5.4971-.6117 2.7854 3.8629 8.6544-1.1133 8.8739 3.1307.1632 3.1538 1.7191 3.1091 2.8602-.1295 1.0277-2.9163-1.9634-3.5205 1.5214-3.3242 3.1374.1768-1.6417-4.898 2.1669-2.8325 1.773.9615 2.676 4.3305 3.6168.344.7227-3.0626 3.9892 1.5946 7.6833.3698 3.7483-1.2428.3274 12.5387 5.4337 7.854" fill="#008f4c" fill-rule="evenodd"/><path d="m171.9441 757.2557c1.1905 2.3336-6.0034-1.0949-3.8966 2.9096 3.0961 5.8845-6.8692-1.0158-5.6512 3.3127 1.3971 4.9649 1.2422 4.5138 0 6.577-.452.7507 2.3924.2024 2.3175 1.3274-.103 1.5432-2.3175 2.0542-2.3175 2.9483 0 1.7818 4.4222 2.4159 3.636 4.0534-1.5561 3.2419.1043 2.801 1.6459 4.7089 2.1863 2.706-1.3328 7.4196 1.9959 10.2636 2.2124 1.8902-1.9548 7.7078 2.5589 6.8591 5.518-1.0375-3.5971 5.9607 1.7342 6.4415 3.148.2839 2.5841 9.0318 5.368 4.0166 2.8275-5.0934 2.7177 4.6258 4.045 3.795 1.612-1.0089 2.8678-5.7159 2.8285-1.0085-.018 2.1381 4.4921-.5424 1.9041 3.0054-2.3939 3.2821 4.7906 3.7593 4.7179 4.0857-1.1813 5.3054 2.6829 7.2223 5.2253 3.3984.951-1.4301-2.1329 9.1125 1.2041 6.7185 3.0085-2.1582 1.2286.2824 2.2157 1.9458 1.9509 3.2874 5.3627-7.3164 3.772-1.5134-.552 2.0139.2322 5.2918 1.0885 5.2918 1.7003 0 3.6579-4.4289 3.5568-7.0496-.085-2.2041.041-2.1208 2.1704-2.2642 2.1581-.1453 1.3231-3.6292 1.8282-.203.5838 3.9594 1.5456.0118 3.7165-1.363 3.0265-1.9165-.2084 6.2349 3.6939 4.33 4.4051-2.1504-1.0432 7.1413 2.5804 6.5497 2.8546-.4661 6.8402-5.0721 4.1265-9.4341-1.805-2.9014 2.3294-8.9618 3.473-5.46.6798 2.0813-2.1157 3.9152.8043 3.5803 2.8938-.3319-1.5179 2.3089 1.2924 4.7033 3.6969 3.1495 1.8185-4.6448 5.7668-.7863 1.2352 1.2071-1.2917-5.4541 2.5826-7.0232 2.6751-1.0834-2.0375-4.5305-.1019-7.2706 2.9047-4.1116-6.4403-4.5242-2.9961-7.8935 1.8876-1.8465 2.7906 3.9046 6.1304 2.8256 3.6467-1.1781.6891-1.0858 3.5613-.1782 2.6129.8256-4.6648-8.7211.2028-6.3309 4.1588 2.0421-.382-4.5176 2.091-7.4486 2.7481-3.2569-5.5347-4.2285-5.5459-6.5953 0-.9335 1.5303-.9571 2.176-1.6899" fill="#008f4c" fill-rule="evenodd"/><path d="m366.1713 766.1282c-.2096 1.9012 9.2422-1.1958 8.2895 2.4536-1.1752 4.5007 8.3433-3.0569 7.2144.9918-.9644 3.4588-1.5823 3.385 2.1114 3.7272 3.2603.302-4.445 1.3308-.2492 2.3778 5.0093 1.2501-2.1718 2.1444 3.6135 5.2568 2.5792 1.3876-4.8084 3.8426-1.8419 6.3322 2.6302 2.2074-1.0899 3.5004 1.8419 7.319 1.294 1.6855-7.51-.2229 0 5.5426 1.8707 1.4362-4.5201 1.4786-3.1479 5.5879.8034 2.4059-7.6169-2.9472-5.4746 1.8697 1.9685 4.4259-5.175.0203-4.5422.9437 2.1741 3.1724-3.2041 3.1005-1.8339 3.5516 5.4877 1.8069-2.4724 4.1418-1.9642 4.6251 2.7642 2.6286.6938 5.336-3.4945 3.9047-2.4328-.8314 5.8711 4.0935.8416 4.3741-2.5899.1445-2.6981-1.6819-1.9132 1.7702.6983 3.0716-6.8575-.79-6.3275-.4719 4.2641 2.5593.027 4.9133-2.9542 2.5121-1.7002-1.3693-1.781-2.7342-4.4573-1.9789-2.8046.7916-1.6487-1.3606-1.9347 1.1832-.476 4.2342-7.2816-3.2263-6.1293 1.4582 1.1912 4.8422.3142 2.0621-.965 6.4401-.4104 1.4044-4.5294-2.788-6.2301-2.6858-3.2984.1982-.8593-2.0847-3.6565-4.4078-2.0286-1.6848-6.4047-.2633-1.7863 1.3876 1.968.7035-5.6916 1.4674-1.3661 2.9995 1.7246.6109-.3792 3.3698-2.1499 2.7064-2.1867-.8192-3.3425 1.5073-5.0974 0-2.4613-2.1142-2.8121-2.0059-4.9047-3.6226-1.6329-1.2615.6128-3.5471-2.5045-4.7016-4.16-1.5407 2.0454-2.4625-1.5938-3.8871-1.1467-.4489-2.4456.4225-3.5319 1.3488-1.6564 1.4126-2.3356-1.6278-3.7346.4954-1.6357 2.4823-.47-5.1751-1.1192-4.6266-1.9147 1.6179-4.3709 2.685-4.1424-.6701.151-2.2178-3.6445-3.1317-4.7477-4.611-1.7872-2.3963 9.8155-5.5514 8.8285-6.9838-.5549-.8054-5.803-1.723-6.7432-2.0119" fill="#008f4c" fill-rule="evenodd"/><path d="m289.0857 803.6411c2.2824-.4565-.602 3.8227 3.5885 2.6699 5.565-1.5309-3.076 6.4117 1.5393 5.8749 3.1651-.3682 4.3229-2.47 4.9309.8818.5602 3.0898 1.4493-3.7851 3.1479-.0623 1.6007 3.5088 3.6568-3.2578 6.3534.9504 1.2304 1.92 3.5323-4.278 6.6617-1.6702 3.4055 2.8377 6.3714-2.2039 10.2625.6544 2.4573 1.8048 1.9592-6.8397 4.7463-2.2191 2.5109 4.1629 3.6015-2.3648 8.0186-1.5989 3.6238.6283-4.0177-5.2753 1.271-4.6696 2.4334.2787 4.5415.07 2.2632-2.0855-1.9543-1.849-1.0727-1.2898 1.4499-1.3997 1.2007-.0523.66-4.0149 2.4557-1.3311 2.0319 3.0369 4.7794-3.3166 4.8821-3.2521 3.1976 2.0064 6.7095.1306 4.4324-3.3695-1.2536-1.9269 5.4251 4.4036 5.3749.1168-.025-2.1448-1.5076-1.9911 1.9494-1.8295 3.527.1649-1.6297-5.5766-1.0965-5.0892 3.2946 3.0115 6.0561-.5583 2.8013-2.7386-1.7048-1.142-3.7573-.2511-2.7866-3.3667.8207-2.6336-1.6695-1.2411 1.2642-1.7458 4.5424-.7814-4.2718-6.4096 1.57-4.9669 4.3799 1.0816.5056-5.2892 5.1698-2.2863 4.6662 3.0042.8686-3.5082.3443-5.2502-.8273-2.7497-4.7169.3433-7.5429-1.4508-2.4872-1.5791-.7998-5.0268 1.4771-1.6663 1.2532 1.8496.7977-4.4007 3.746-1.2807 1.4337 1.5172 5.4726-2.109 2.2757-3.6067-2.8757-1.3472 3.6434-2.8245-.9629-3.3459-2.393-.2709-1.8981-.9192-3.5001-3.0301-1.6187-2.1329-4.3729.8328-6.1542-1.51-2.5961-3.4143-6.0185 4.9716-7.2586 1.1824-.9014-2.7544.3804-3.8964 3.5591-4.775.9944-.2749-3.4714-1.594-.023-3.0266 4.1829-1.7375-5.9289.1257-5.1346-.5611 1.804-1.5602 2.8668-3.9236-1.1668-3.2919-2.6451.4143-2.4151-1.3001-4.0007-1.9063-3.2717-1.2509-4.7765 4.4161-6.7783 3.7735-.7842-.2518-.3637-1.5785-.8054-2.3087" fill="#008f4c" fill-rule="evenodd"/><path d="m305.5613 717.8016c1.459.5696.8608-3.3432 3.379-2.2424 3.4708 1.5172-.516-5.1714 2.944-5.1497 1.8629.0117 2.1447 2.8169 3.7312-.2568 1.7012-3.2958-.055 3.1406 2.3901-.1491 2.3071-3.104 1.8365 3.1366 4.6668-.4369 1.0926-1.3796.9336 3.9502 3.7845 1.665 3.275-2.6251 3.9558 2.067 7.0286-.0261 3.7882-2.5804-.1796 5.5876 3.1434 2.0251 2.285-2.4498 1.9487-.4725 3.0867.9575.9625 1.2095 4.4783.3744 1.5416 2.6933-3.7672 2.9748 2.6809 1.5863 2.0322 2.7341-.7955 1.4078-4.3733 3.2483-1.0171 2.4858 1.2872-.2924-1.0148 3.8801 1.7342 1.1123 2.2782-2.2939 2.0078 3.3003 2.1669 3.2181 3.7351-1.9273 4.4441 1.2802 1.6356 3.7505-.9916.8722 5.852-3.0416 3.8796.0566-1.5474 2.4311-.5362.8705 1.0036 1.42 2.2392.799-5.6781 5.5714-1.477 3.4477 3.802-1.9219.9235 3.5483-1.5949 4.0104-1.254.2301-1.3282.3554-1.4522 2.0597-.1518 2.085-2.6104 1.4737-.091 1.6278 2.1355.1306-.7686 1.7429-1.7761 3.1564-1.0978 1.5403 2.5971-.2505 2.902.8193.5332 1.8708-1.446 4.1399 1.6776 2.5414 3.8021-1.9456-.9747 3.1503-1.7103 4.5459-1.4835 2.8138-3.0707-.3031-5.921 1.2317-1.8531.9979-2.3981 4.5598.153 1.7681 1.8532-2.028-.938 3.9501 2.4184 1.0645 1.6009-1.3764 2.7441 2.3122.091 3.4486-2.0758.889 1.7544 2.3574-1.3899 2.6806-1.9198.1973-2.2474.9162-3.5489 2.5772-1.0115 1.291-2.7652-1.2656-4.6215.9399-1.5414 1.8313-2.1842.3001-2.961-1.1732-.5134-.9737-1.9867-.6582-1.6991 1.2285.291 1.909 1.4894 3.0548.623 3.4941-3.0984 1.5713.041 2.3373-.6729 3.3104-1.3484 1.838-4.8706-2.6654-4.0892.848.6851 3.0802-3.0985.4785-5.3329 2.8578-2.0225 2.1536-2.2989-4.3103-3.9-3.2926-.6055.3849-.6638 1.2329-1.1679 1.7816" fill="#008f4c" fill-rule="evenodd"/><path d="m241.0077 802.9661c2.2824-.4566-.602 3.8227 3.5885 2.67 5.565-1.5308-3.0758 6.4115 1.5393 5.8746 3.1641-.3681 4.323-2.4694 4.9309.8821.5604 3.0899 1.4498-3.7853 3.1479-.0646 1.6013 3.5087 3.6569-3.2576 6.3534.9507 1.2304 1.92 3.532-9.0914 6.6618-6.4835 3.4052 2.8376 4.6871-2.2043 8.5782.654 2.4562 1.8044 5.3279-5.1405 8.1149-.5201 2.511 4.1628 1.9171.7497 6.3343 1.5156 3.6238.6284-4.0177-5.2754 1.2709-4.6697 2.4334.2787 4.5421.0717 2.2633-2.0854-1.9538-1.8494-1.0727-1.2897 1.4499-1.3997 1.2008-.0523.6592-4.0143 2.4546-1.3311 2.0325 3.0376 4.7805-3.3166 4.8832-3.2521 3.1977 2.0066 6.7096.1306 4.4325-3.3695-1.2535-1.9267 5.425 4.4036 5.3748.1169-.025-2.1448-1.5077-1.991 1.9494-1.8294 3.5272.1649-1.6305-5.5773-1.0966-5.0893 3.2951 3.0107 6.0561-.5583 2.8013-2.7387-1.7045-1.142-3.7573-.2511-2.7865-3.3667.8205-2.6336-1.6696-1.2411 1.2641-1.7458 4.5423-.7814-4.2718-6.4095 1.57-4.967 4.3799 1.0816.5055-5.2888 5.1698-2.2859 4.6662 3.004 2.1319-4.9154.3445-5.2505-12.9918-2.4354-4.4959-5.9459-2.3199-4.3977 1.7005 1.2101 5.4727-2.1095 2.2757-3.607-2.8758-1.347 3.6434-2.8246-.9628-3.3458-2.3929-.2708-1.8982-.9188-3.5002-3.0301-1.6185-2.133-4.3728.8327-6.1542-1.51-2.5962-3.4142-6.017 4.9722-7.2586 1.1824-.9022-2.7541.3804-3.8964 3.5591-4.7749.9945-.2749-3.4714-1.594-.023-3.0266 4.1829-1.7375-5.9288.1255-5.1347-.5613 1.8042-1.5602 2.8669-3.9236-1.1667-3.2918-2.6452.4144-2.4152-1.3001-4.0008-1.9063-3.2717-1.2509-4.7764 4.4159-6.7783 3.7733-.784-.2517-.3636-1.5783-.8054-2.3086" fill="#008f4c" fill-rule="evenodd"/><path d="m178.4555 764.9411s.8785.1995.8609.5374c-.063 1.2282-3.0667.4139-3.3144 1.6185-.3197 1.5555 5.6531 3.996 3.1083 3.6098-3.3688-.5113-9.8354 1.4369-7.4115 2.1672 0 0 4.2304-.1695 4.617 1.3911.4119 1.6629-4.4444 2.0862-3.6587 3.6085.5542 1.0739 2.8372-1.5924 3.5692-.6309.7466.9807-2.0854 2.2115-1.5881 3.3394.6515 1.4777 4.1514-.1279 4.6329 1.4137.2995.959-2.2335 1.4281-1.869 2.3643.6244 1.6036 3.8998-.4198 5.0962.817 1.2093 1.2502-.3822 3.7818.6559 5.1776.8585 1.1543 3.1033.583 3.9441 1.7503.82 1.1384-.7096 3.333.401 4.1901 1.4965 1.1549 4.44-2.4052 5.5969-.91.9379 1.2123-2.6172 2.881-1.852 4.2091.8201 1.4233 3.4417-.2181 4.8968.5435 1.2054.6308 1.322 3.0692 2.6823 3.0765 1.7327.009 1.7258-3.901 3.4583-3.8818 1.6998.0189 1.6104 3.9791 3.3076 3.8828 1.5312-.0869 1.0453-3.9919 2.569-3.8182.8767.0999.1715 2.0499.9459 2.4728 1.1568.6318 3.1723-1.9272 3.8705-.8089.5336.8546-3.5416.9575-1.8531 2.3873 2.0027 1.6959 4.0657-.4096 6.622.4427 2.009.6699 1.079 5.9693 2.8284 4.4567l3.8581-3.3357c1.3364-1.1554-2.0955 3.6194.6298 5.1909 1.5096.8704 2.5197-3.3815 3.9227-2.6568.7512.3881-.5781 1.978.057 2.5367.7314.6438 2.1013.2413 2.9066-.3073 1.2224-.8328.6583-4.4362 2.0502-3.9362.9171.3294-.8964 1.9296-.6071 2.8603.2082.6698.8297 1.373 1.5269 1.4475 1.2078.1291 2.4663-.8643 3.115-1.8915.9656-1.5287-1.0713-4.5981.5505-5.3967.579-.285 1.0322 1.2182 1.6459 1.0191.9396-.3048.139-2.6806 1.1248-2.7423.9897-.062.6175 2.0734 1.4635 2.5907.7813.4777 2.0427.7003 2.7447.1122.8019-.672-.4509-2.5363.4236-3.1106.8254-.5421 2.281-.006 2.8522.8002.4373.6166-.7419 1.8011-.1438 2.2631 1.3044 1.0078 3.2857-2.406 4.6952-1.5512 1.3712.8316-.734 4.2061.7748 4.7492 1.6001.5759 2.6164-2.1782 3.8411-3.3582.8866-.8542 2.6417-1.4617 2.5328-2.6882-.1099-1.2359-2.3606-1.1471-2.9893-2.2167-.6429-1.0938-1.1852-2.7105-.4939-3.7744.7005-1.078 2.8311-2.0447 3.6973-1.0948.7697.8441-1.9807 2.2894-1.2698 3.1837.9304 1.1703 3.5696-1.9024 4.4324-.6813.5391.7629-1.6753 1.6031-1.3253 2.4693.5365 1.3272 2.7595 1.8382 4.0892 1.3088 1.24-.4936.7015-2.9918 1.9324-3.5077.9108-.3817 2.1591 1.5039 2.8523.8004 1.2509-1.2696-2.4289-3.5945-1.519-5.1273.471-.7935 2.4799.3146 2.7061-.58.3808-1.5063-3.4326-1.4762-3.5444-3.0259-.062-.8608 1.4907-1.1106 1.7071-1.946.227-.8763.1364-2.0938-.5743-2.6542-.8157-.6432-2.1836.5298-3.1151.0702-.9018-.445-3.5785-2.8958-1.7818-2.4354 2.159.5533 4.1402.5976 5.4395-1.1733 1.0974-1.4958 1.3247 2.1346 2.2281 1.8158.9187-.3242-.2605-2.4145.606-2.8601 1.2846-.6606 5.2014 3.5705 3.9702 1.737-1.1169-1.6633-8.6052-4.405-4.7269-4.6417 0 0 4.3501 1.2119 5.1336-.3134.8077-1.5727-3.1729-2.76-2.8194-4.4924.1453-.7121 1.7885-.5176 1.7897-1.2444 0-.7511-1.8452-1.2923-1.8452-1.2923-1.9842-1.3897-8.4265.4409-6.6866-1.1213l2.7152-2.4379c.011-.008-.034 0-.045-.0159" fill="#008f4c" fill-rule="evenodd"/><path d="m212.6926 722.3427c-.845-8.5848-4.8912-7.7406-5.9865-7.7807-1.2258-.0442-1.9118-.0965-1.5554 1.8868.8202 4.563-5.8563-3.4434-7.1963.1155-.8844 2.349 3.2523 4.216-1.5722 4.2213-4.3405.005 4.1204 1.7122-.3318 2.5005-4.9248.872 3.7566 3.8536-1.9461 5.0668-1.9612.4172 4.8594 3.0129 1.3966 5.1244-2.8885 1.7615.017 3.7788-.4711 6.2937-.5316 2.7407-3.7573 3.7844.4836 4.6407 5.4049 1.0913-6.5079 2.6121-.8824 4.6845 3.3243 1.2246-.5544 6.9527 4.3508 4.4652 5.6477-2.8639-.2333 5.6734 4.2195 3.4504 1.9173-.9572 3.6539-1.7968 2.1941.7416-.7684 1.336 5.3643 1.1703 1.2426 2.5514-3.6886 1.236 3.4275 4.2959 3.345 4.364-2.8762 2.3727-.6221 5.2998 3.533 4.0149 2.485-.7684-5.8478 3.8859-.7918 4.3397 2.5403.228 2.704-1.5684 1.9528 1.8223-.6948 3.1364 6.8497-.5639 6.3275-.267-4.2553 2.4201.023 4.9084 2.9825 2.6068 1.6862-1.3113 1.7483-2.6889 4.4392-1.8357 2.7179.8618 1.6505-1.2608 1.9563 1.2426.5243 4.2921 8.2549-2.712 6.1541 1.6544-2.2514 4.6796 6.2976 1.2378 1.6334 4.9526-3.7093 2.9543 4.564.8636 6.6073.6694 3.2751-.3111-.1595-3.6704 2.6166-5.9223 1.9989-1.6214 6.4548-.1013 1.8204 1.4203-1.9378.6362 5.5798 1.0228 1.0874 3.1956-1.6228.7849 1.8931 4.6955 4.1096 2.2896 1.9883-2.1582 3.0001 3.2767 4.19-.3746.6445-1.9778 1.2114-1.7969 4.1107-2.4525 1.8125-.4099-1.0517-3.5554 2.3583-4.6023 4.3407-1.3326-3.8523-5.2755-.2333-6.2751 1.8025-.4979 4.8362.9606 5.0475 1.9114.7036 3.1677 1.6357-.3006 3.0674.574 1.4552.8889 1.8539 3.8339 2.4128.6962.3515-1.9733-2.0351-5.0602 1.2958-2.557 4.0615 3.0523 1.4898-2.6987 5.4304-4.3795 2.7096-1.1558-4.7039-4.5403-3.7324-5.9626.3235-.4737 1.7806-2.7811 3.1155-4.6519" fill="#008f4c" fill-rule="evenodd"/><path d="m307.6275 733.6868c-1.5224-1.292 4.1084-1.6153 1.1825-3.9276-3.67-2.9004 6.924-1.1871 5.2537-4.2633-1.2604-2.3213-4.9133-1.3351-1.6278-3.7535 3.4023-2.5044-4.1319.8897-1.0625-2.4011 2.8769-3.0843-5.3345-.7388-1.8826-4.7258 1.1676-1.3487-5.7188.1295-4.1956-3.3007 1.738-3.9139-4.8179-3.3676-3.6713-6.9523 1.4146-4.4222-7.2609 1.6053-4.3327-2.5724 2.0662-2.9478-.4044-2.0511-2.893-2.7989-1.9449-.5844-2.8494-4.3402-4.3724-.8152-1.9401 4.4907-3.401-2.3169-4.6838-1.2884-1.3472 1.0801-2.007 5.0909-2.7503 1.6573-.3224-1.4891-4.715 2.2143-2.3833-1.42 1.7642-2.7499-5.4211-1.1165-5.3964-1.2956.578-4.1975-4.0465-4.0343-5.82-.6305-.6209 1.1915 1.5313-5.4019-.4984-4.4612-2.846 1.319-2.3126 1.3814-4.2693 0-2.2844-1.6128-1.9644 5.1987-5.5198 0-1.3199-1.9299-3.2239 2.3068-2.4751 5.0205.3423 1.2402.1256 1.4332-1.9562 1.9765-2.0453.5336-.691 2.7774-2.1024.5216-1.4372-2.297-1.98 1.3006-3.2351 2.5838-1.7826 1.8226-1.4754-2.6375-2.6132-2.6516-2.3728-.0293-4.7084 2.5172-4.2433-.9903.5673-4.2779-3.6515 1.7929-5.1063 2.8849-2.939 2.2059 2.0321 2.8832 1.494 6.1745-.3613 2.2105-4.8825 3.7327-2.4184.3129 1.6293-2.2612-4.8121 2.1417-2.6812-2.1094.9623-1.9197-4.5021-2.1405-4.6057.8167-.079 2.2747-4.0656-1.1781-2.8103 2.078.7295 1.8921.3664 2.0121-1.536 4.1842-1.2659 1.4452 3.2896 2.2004 1.1939 4.8129-1.5155 1.8893.8944 2.2591 3.1117 2.6168 1.358.2191 1.913 1.7905-.7273 2.0019-2.1772.1742-4.7984-.8588-4.9466.303-.4525 3.546-2.8517.2998-4.0213 1.5346-1.5796 1.6678 6.1534 4.1096 1.0354 4.2632-4.3396.1302 1.3733 2.653-.9651 6.0209-1.75 2.5204 6.9092 1.1367 6.4067 2.988-.2076.7649-1.2788.9795-1.7388 1.6217" fill="#008f4c" fill-rule="evenodd"/><path d="m311.3406 754.152c-1.3842-1.2921 3.6982-1.6474 1.075-3.9276-3.3758-2.9344 6.3262-1.1252 4.7767-4.2633-1.0742-2.1755-4.452-1.3467-1.4793-3.7536 3.1075-2.5161-3.7537.8864-.9663-2.4009 2.6184-3.0878-4.7822-.8173-1.7127-4.7259 1.1017-1.4029-5.1962.1226-3.8139-3.3007 1.5831-3.9205-4.3812-3.3664-3.3382-6.9523 1.286-4.421-6.6117 1.6225-3.9385-2.5724 1.8668-2.9297-.3875-2.0573-2.6314-2.7989-1.8131-.5992-2.5929-4.3325-3.9748-.8152-1.7671 4.498-3.1182-2.2947-4.2591-1.2883-1.2522 1.1045-1.8208 5.1031-2.4999 1.6572-.2868-1.4555-4.2453 2.1425-2.1681-1.4199 1.635-2.804-4.9284-1.1164-4.9059-1.2956.527-4.1973-3.6746-4.0441-5.291-.6306-.5685 1.2006.9598-6.6896-1.9268-3.8179-2.0946 2.084-.9813.5705-2.1884-.6182-2.1821-2.1487-3.9694 7.0621-3.4345 2.3652.4883-4.2876-4.7242-.061-4.0552 2.6302.3104 1.2486.1883 1.4118-1.7795 1.9765-2.0165.5786-.6022 2.8207-1.9098.5216-1.2729-2.2381-1.7515 1.2453-2.9418 2.5838-1.5467 1.7394-1.2393-2.636-2.3764-2.6515-2.2053-.0299-4.2803 2.5087-3.8582-.9904.5168-4.2827-3.3197 1.7925-4.6431 2.8849-2.6717 2.2055 1.84 2.9334 1.3582 6.1745-.3269 2.199-4.3992 3.6737-2.1975.313 1.5128-2.3091-4.3461 2.0655-2.4388-2.1095.8923-1.953-4.0939-2.1385-4.1877.8169-.071 2.2669-3.6902-1.1624-2.5555 2.078.6668 1.9044.2437 2.1262-1.3955 4.1842-1.1603 1.4567 2.9436 2.2655 1.0851 4.8127-1.4167 1.9418.8105 2.2586 2.8296 2.6168 1.2912.2291 1.7803 1.787-.6615 2.0019-2.064.1817-4.3685-.8167-4.4981.303-.4103 3.5469-2.6468.3635-3.6554 1.5347-1.4938 1.7346 5.5953 4.1095.9413 4.2631-3.9517.1304 1.1442 2.8176-.8778 6.0208-1.6333 2.5874 6.285 1.1261 5.8256 2.988-.1813.7353-1.1633.9795-1.5813 1.6217" fill="#008f4c" fill-rule="evenodd"/></g></g><path d="m958.3199 488.6801v118.3125c0 17.0875 13.85 30.9375 30.9375 30.9375h15.5938c6.795 0 12.7415 4.3135 15.5937 10 2.8523-5.6865 8.7988-10 15.5938-10h15.5937c17.0875 0 30.9375-13.85 30.9375-30.9375v-118.3125z" fill="none" stroke-width=".75"/></g></svg>