<svg viewBox="0 0 750 500" xmlns="http://www.w3.org/2000/svg"><path d="M0 0v500h750V0z" fill="#078930"/><path d="M0 0v50.062L674.875 500H750v-50.062L75.125 0z" fill="#fcdd09"/><g stroke="#000" stroke-linecap="round" stroke-linejoin="round"><path d="M418.452 213.25c0 1.753-9.527 5.318-43.452 5.318s-43.452-3.565-43.452-5.318 9.527-5.318 43.452-5.318 43.452 3.565 43.452 5.318z" fill="#ed1c24" stroke-width=".25"/><g fill="none"><path d="M336.856 210.957v4.585" stroke-width="1.375"/><path d="M338.465 210.585v5.33" stroke-width="1.3125"/><path d="M340.074 210.34v5.819" stroke-width="1.25"/><path d="M341.683 210.038v6.423" stroke-width="1.1875"/><path d="M343.293 209.771v6.958" stroke-width="1.125"/><path d="M344.902 209.538v7.423" stroke-width="1.0625"/><path d="M346.511 209.306v7.888" stroke-width="1"/><path d="M348.12 209.108v8.284" stroke-width=".9375"/><path d="M349.73 208.98v8.54" stroke-width=".875"/><path d="M351.34 208.829v8.842" stroke-width=".8125"/><path d="M352.949 208.596v9.307" stroke-width=".75"/><path d="M354.558 208.468v9.564" stroke-width=".6875"/><path d="M356.167 208.41v9.68" stroke-width=".625"/><path d="M357.776 208.27v9.959" stroke-width=".5625"/><path d="M359.386 208.154v10.191" stroke-width=".5"/><path d="M360.995 208.084v10.331" stroke-width=".4375"/><path d="M362.605 207.98v10.54" stroke-width=".375"/><path d="M364.214 207.91v10.68" stroke-width=".3125"/><path d="M365.823 207.7v11.1" stroke-width=".25"/><path d="M367.433 207.7v11.1" stroke-width=".1875"/><path d="M369.042 207.7v11.1" stroke-width=".125"/><path d="M370.651 207.7v11.1" stroke-width=".0625"/><path d="M333.637 212.062v2.376" stroke-width="1.5"/><path d="M335.246 211.469v3.562" stroke-width="1.4375"/><path d="M413.145 210.957v4.585" stroke-width="1.375"/><path d="M411.536 210.585v5.33" stroke-width="1.3125"/><path d="M409.926 210.34v5.819" stroke-width="1.25"/><path d="M408.317 210.038v6.423" stroke-width="1.1875"/><path d="M406.707 209.771v6.958" stroke-width="1.125"/><path d="M405.098 209.538v7.423" stroke-width="1.0625"/><path d="M403.489 209.306v7.888" stroke-width="1"/><path d="M401.88 209.108v8.284" stroke-width=".9375"/><path d="M400.27 208.98v8.54" stroke-width=".875"/><path d="M398.66 208.829v8.842" stroke-width=".8125"/><path d="M397.052 208.596v9.307" stroke-width=".75"/><path d="M395.442 208.468v9.564" stroke-width=".6875"/><path d="M393.833 208.41v9.68" stroke-width=".625"/><path d="M392.224 208.27v9.959" stroke-width=".5625"/><path d="M390.614 208.154v10.191" stroke-width=".5"/><path d="M389.005 208.084v10.331" stroke-width=".4375"/><path d="M387.396 207.98v10.54" stroke-width=".375"/><path d="M385.786 207.91v10.68" stroke-width=".3125"/><path d="M384.177 207.7v11.1" stroke-width=".25"/><path d="M382.568 207.7v11.1" stroke-width=".1875"/><path d="M380.959 207.7v11.1" stroke-width=".125"/><path d="M379.349 207.7v11.1" stroke-width=".0625"/><path d="M416.363 212.062v2.376" stroke-width="1.5"/><path d="M414.754 211.469v3.562" stroke-width="1.4375"/></g><path d="m438.342 177.31-12.634 18.546-11.727 7.746L375 200.666l-38.98 2.936-11.728-7.746-12.634-18.546c4.18-6.737 14.456-12.199 26.318-11.679 12.444.546 18.654-6.006 37.024-6.006s24.58 6.552 37.024 6.006c11.862-.52 22.137 4.942 26.318 11.679z" fill="#ed1c24" stroke-width=".25"/><path d="m434.206 177.503 3.71-9.26-4.853-10.436c8.649 7.03 9.447 14.873 4.125 23.848z" fill="#eac102" stroke-width=".25"/><path d="M386.294 150.44a1.975 1.975 0 1 0 3.95 0 1.975 1.975 0 0 0-3.95 0z" fill="#e5e5e5" fill-rule="evenodd" stroke-width=".25"/><path d="M377.405 149.453c8.104 2.476 16.939 5.263 24.942 4.07 15.904-2.37 25.496.047 30.716 4.284 7.005 5.686 6.138 14.64 2.097 19.618l2.028 4.23-1.907.613-2.433-4.954c8.182-8.707 4.443-27.103-30.21-21.934-8.343 1.245-17.526-1.598-25.83-4.136z" fill="#eac102" stroke-width=".25"/><path d="m435.16 177.425-2.312-.111" fill="none" stroke-width=".25"/><path d="M405.669 150.921a1.975 1.975 0 1 0 3.95 0 1.975 1.975 0 0 0-3.95 0zM400.856 151.491a1.975 1.975 0 1 0 3.95 0 1.975 1.975 0 0 0-3.95 0zM381.544 149.224a1.975 1.975 0 1 0 3.95 0 1.975 1.975 0 0 0-3.95 0zM436.908 178.879a1.975 1.975 0 1 0 3.95 0 1.975 1.975 0 0 0-3.95 0zM438.782 174.42a1.975 1.975 0 1 0 3.95 0 1.975 1.975 0 0 0-3.95 0zM439.675 169.757a1.975 1.975 0 1 0 3.95 0 1.975 1.975 0 0 0-3.95 0zM438.856 165.07a1.975 1.975 0 1 0 3.95 0 1.975 1.975 0 0 0-3.95 0zM436.481 160.89a1.975 1.975 0 1 0 3.95 0 1.975 1.975 0 0 0-3.95 0zM433.356 157.154a1.975 1.975 0 1 0 3.95 0 1.975 1.975 0 0 0-3.95 0zM429.481 154.367a1.975 1.975 0 1 0 3.95 0 1.975 1.975 0 0 0-3.95 0zM425.044 152.34a1.975 1.975 0 1 0 3.95 0 1.975 1.975 0 0 0-3.95 0zM420.294 151.2a1.975 1.975 0 1 0 3.95 0 1.975 1.975 0 0 0-3.95 0zM415.419 150.693a1.975 1.975 0 1 0 3.95 0 1.975 1.975 0 0 0-3.95 0zM410.544 150.63a1.975 1.975 0 1 0 3.95 0 1.975 1.975 0 0 0-3.95 0zM395.981 151.833a1.975 1.975 0 1 0 3.95 0 1.975 1.975 0 0 0-3.95 0zM391.106 151.39a1.975 1.975 0 1 0 3.95 0 1.975 1.975 0 0 0-3.95 0z" fill="#e5e5e5" fill-rule="evenodd" stroke-width=".25"/><path d="m408.347 175.701-3.603-4.676 4.11-10.435-2.081-8.179-10.518-6.307c22.972 3.325 16.351 18.866 16.444 26.612z" fill="#eac102" stroke-width=".25"/><path d="m404.744 171.025 3.603 4.676-1.81.294-3.819-4.998c9.385-10.488 4.174-21.43-6.766-22.75-7.852-.95-12.984 3.464-20.952 2.662v-2.147c6.166.92 14.323-3.646 21.255-2.658 14.682 2.094 16.3 15.845 8.489 24.92z" fill="#eac102" stroke-width=".25"/><path d="m404.744 171.025-2.026-.028" fill="none" stroke-width=".25"/><path d="M375.462 146.88a1.975 1.975 0 1 0 3.95 0 1.975 1.975 0 0 0-3.95 0z" fill="#e5e5e5" fill-rule="evenodd" stroke-width=".25"/><path d="M377.877 146.675a1.975 1.975 0 1 0 3.95 0 1.975 1.975 0 0 0-3.95 0z" fill="#e5e5e5" fill-rule="evenodd" stroke-width=".25"/><path d="M379.892 146.234a1.975 1.975 0 1 0 3.95 0 1.975 1.975 0 0 0-3.95 0z" fill="#e5e5e5" fill-rule="evenodd" stroke-width=".25"/><path d="M381.915 145.67a1.975 1.975 0 1 0 3.95 0 1.975 1.975 0 0 0-3.95 0zM407.165 171.4a1.975 1.975 0 1 0 3.95 0 1.975 1.975 0 0 0-3.95 0zM409.096 166.832a1.975 1.975 0 1 0 3.95 0 1.975 1.975 0 0 0-3.95 0zM410.15 162.044a1.975 1.975 0 1 0 3.95 0 1.975 1.975 0 0 0-3.95 0zM410.007 157.3a1.975 1.975 0 1 0 3.95 0 1.975 1.975 0 0 0-3.95 0z" fill="#e5e5e5" fill-rule="evenodd" stroke-width=".25"/><path d="M384.022 145.193a1.975 1.975 0 1 0 3.95 0 1.975 1.975 0 0 0-3.95 0z" fill="#e5e5e5" fill-rule="evenodd" stroke-width=".25"/><path d="M386.197 144.702a1.975 1.975 0 1 0 3.95 0 1.975 1.975 0 0 0-3.95 0z" fill="#e5e5e5" fill-rule="evenodd" stroke-width=".25"/><path d="M388.505 144.31a1.975 1.975 0 1 0 3.95 0 1.975 1.975 0 0 0-3.95 0z" fill="#e5e5e5" fill-rule="evenodd" stroke-width=".25"/><path d="M390.871 144.036a1.975 1.975 0 1 0 3.95 0 1.975 1.975 0 0 0-3.95 0z" fill="#e5e5e5" fill-rule="evenodd" stroke-width=".25"/><path d="M393.545 144.044a1.975 1.975 0 1 0 3.95 0 1.975 1.975 0 0 0-3.95 0z" fill="#e5e5e5" fill-rule="evenodd" stroke-width=".25"/><path d="M396.529 144.52a1.975 1.975 0 1 0 3.95 0 1.975 1.975 0 0 0-3.95 0z" fill="#e5e5e5" fill-rule="evenodd" stroke-width=".25"/><path d="M399.732 145.428a1.975 1.975 0 1 0 3.95 0 1.975 1.975 0 0 0-3.95 0z" fill="#e5e5e5" fill-rule="evenodd" stroke-width=".25"/><path d="M403.163 146.973a1.975 1.975 0 1 0 3.95 0 1.975 1.975 0 0 0-3.95 0zM406.259 149.584a1.975 1.975 0 1 0 3.95 0 1.975 1.975 0 0 0-3.95 0zM408.611 153.108a1.975 1.975 0 1 0 3.95 0 1.975 1.975 0 0 0-3.95 0z" fill="#e5e5e5" fill-rule="evenodd" stroke-width=".25"/><path d="m315.794 177.503-3.71-9.26 4.853-10.436c-8.649 7.03-9.447 14.873-4.125 23.848z" fill="#eac102" stroke-width=".25"/><path d="M363.706 150.44a1.975 1.975 0 1 1-3.95 0 1.975 1.975 0 0 1 3.95 0z" fill="#e5e5e5" fill-rule="evenodd" stroke-width=".25"/><path d="M372.595 149.453c-8.104 2.476-16.939 5.263-24.942 4.07-15.904-2.37-25.496.047-30.716 4.284-7.005 5.686-6.138 14.64-2.097 19.618l-2.028 4.23 1.907.613 2.433-4.954c-8.182-8.707-4.443-27.103 30.21-21.934 8.343 1.245 17.526-1.598 25.83-4.136z" fill="#eac102" stroke-width=".25"/><path d="m314.84 177.425 2.312-.111" fill="none" stroke-width=".25"/><path d="M344.331 150.921a1.975 1.975 0 1 1-3.95 0 1.975 1.975 0 0 1 3.95 0zM349.144 151.491a1.975 1.975 0 1 1-3.95 0 1.975 1.975 0 0 1 3.95 0zM368.456 149.224a1.975 1.975 0 1 1-3.95 0 1.975 1.975 0 0 1 3.95 0zM313.092 178.879a1.975 1.975 0 1 1-3.95 0 1.975 1.975 0 0 1 3.95 0zM311.218 174.42a1.975 1.975 0 1 1-3.95 0 1.975 1.975 0 0 1 3.95 0zM310.325 169.757a1.975 1.975 0 1 1-3.95 0 1.975 1.975 0 0 1 3.95 0zM311.144 165.07a1.975 1.975 0 1 1-3.95 0 1.975 1.975 0 0 1 3.95 0zM313.519 160.89a1.975 1.975 0 1 1-3.95 0 1.975 1.975 0 0 1 3.95 0zM316.644 157.154a1.975 1.975 0 1 1-3.95 0 1.975 1.975 0 0 1 3.95 0zM320.519 154.367a1.975 1.975 0 1 1-3.95 0 1.975 1.975 0 0 1 3.95 0zM324.956 152.34a1.975 1.975 0 1 1-3.95 0 1.975 1.975 0 0 1 3.95 0zM329.706 151.2a1.975 1.975 0 1 1-3.95 0 1.975 1.975 0 0 1 3.95 0zM334.581 150.693a1.975 1.975 0 1 1-3.95 0 1.975 1.975 0 0 1 3.95 0zM339.456 150.63a1.975 1.975 0 1 1-3.95 0 1.975 1.975 0 0 1 3.95 0zM354.019 151.833a1.975 1.975 0 1 1-3.95 0 1.975 1.975 0 0 1 3.95 0zM358.894 151.39a1.975 1.975 0 1 1-3.95 0 1.975 1.975 0 0 1 3.95 0z" fill="#e5e5e5" fill-rule="evenodd" stroke-width=".25"/><path d="m341.653 175.701 3.603-4.676-4.11-10.435 2.081-8.179 10.518-6.307c-22.972 3.325-16.351 18.866-16.444 26.612z" fill="#eac102" stroke-width=".25"/><path d="m345.256 171.025-3.603 4.676 1.81.294 3.819-4.998c-9.385-10.488-4.174-21.43 6.766-22.75 7.852-.95 12.984 3.464 20.952 2.662v-2.147c-6.166.92-14.323-3.646-21.255-2.658-14.682 2.094-16.3 15.845-8.489 24.92z" fill="#eac102" stroke-width=".25"/><path d="m345.256 171.025 2.026-.028" fill="none" stroke-width=".25"/><path d="M374.538 146.88a1.975 1.975 0 1 1-3.95 0 1.975 1.975 0 0 1 3.95 0z" fill="#e5e5e5" fill-rule="evenodd" stroke-width=".25"/><path d="M372.123 146.675a1.975 1.975 0 1 1-3.95 0 1.975 1.975 0 0 1 3.95 0z" fill="#e5e5e5" fill-rule="evenodd" stroke-width=".25"/><path d="M370.108 146.234a1.975 1.975 0 1 1-3.95 0 1.975 1.975 0 0 1 3.95 0z" fill="#e5e5e5" fill-rule="evenodd" stroke-width=".25"/><path d="M368.085 145.67a1.975 1.975 0 1 1-3.95 0 1.975 1.975 0 0 1 3.95 0zM342.835 171.4a1.975 1.975 0 1 1-3.95 0 1.975 1.975 0 0 1 3.95 0zM340.904 166.832a1.975 1.975 0 1 1-3.95 0 1.975 1.975 0 0 1 3.95 0zM339.85 162.044a1.975 1.975 0 1 1-3.95 0 1.975 1.975 0 0 1 3.95 0zM339.993 157.3a1.975 1.975 0 1 1-3.95 0 1.975 1.975 0 0 1 3.95 0z" fill="#e5e5e5" fill-rule="evenodd" stroke-width=".25"/><path d="M365.978 145.193a1.975 1.975 0 1 1-3.95 0 1.975 1.975 0 0 1 3.95 0z" fill="#e5e5e5" fill-rule="evenodd" stroke-width=".25"/><path d="M363.803 144.702a1.975 1.975 0 1 1-3.95 0 1.975 1.975 0 0 1 3.95 0z" fill="#e5e5e5" fill-rule="evenodd" stroke-width=".25"/><path d="M361.495 144.31a1.975 1.975 0 1 1-3.95 0 1.975 1.975 0 0 1 3.95 0z" fill="#e5e5e5" fill-rule="evenodd" stroke-width=".25"/><path d="M359.129 144.036a1.975 1.975 0 1 1-3.95 0 1.975 1.975 0 0 1 3.95 0z" fill="#e5e5e5" fill-rule="evenodd" stroke-width=".25"/><path d="M356.455 144.044a1.975 1.975 0 1 1-3.95 0 1.975 1.975 0 0 1 3.95 0z" fill="#e5e5e5" fill-rule="evenodd" stroke-width=".25"/><path d="M353.471 144.52a1.975 1.975 0 1 1-3.95 0 1.975 1.975 0 0 1 3.95 0z" fill="#e5e5e5" fill-rule="evenodd" stroke-width=".25"/><path d="M350.268 145.428a1.975 1.975 0 1 1-3.95 0 1.975 1.975 0 0 1 3.95 0z" fill="#e5e5e5" fill-rule="evenodd" stroke-width=".25"/><path d="M346.837 146.973a1.975 1.975 0 1 1-3.95 0 1.975 1.975 0 0 1 3.95 0zM343.741 149.584a1.975 1.975 0 1 1-3.95 0 1.975 1.975 0 0 1 3.95 0zM341.389 153.108a1.975 1.975 0 1 1-3.95 0 1.975 1.975 0 0 1 3.95 0z" fill="#e5e5e5" fill-rule="evenodd" stroke-width=".25"/><path d="M374.013 136.644v-6.723h-3.048v-1.994h3.048v-2.802h1.974v2.802h3.048v1.994h-3.048v6.723z" fill="#eac102" stroke-width=".25"/><path d="M380.438 139.675a5.437 5.437 0 1 1-10.875 0 5.437 5.437 0 0 1 10.875 0z" fill="#0071bc" fill-rule="evenodd" stroke-width=".25"/><path d="M378.34 147.733c1.511 5.643.667 16.176 2.973 22.368l-6.313 6.58-6.313-6.58c2.306-6.192 1.462-16.725 2.973-22.368.61-2.281 2.167-3.362 3.34-3.362s2.73 1.08 3.34 3.361z" fill="#eac102" stroke-width=".25"/><path d="M379.883 169.737c-2.203-7.033-1.125-14.582-2.575-21.384-.254-1.193-1.172-2.707-2.308-2.707s-2.054 1.514-2.308 2.707c-1.45 6.802-.372 14.35-2.575 21.384l4.883 5.201zM368.687 170.101l1.43-.364M381.313 170.101l-1.43-.364" fill="none" stroke-width=".25"/><path d="M376.975 143.298a1.975 1.975 0 1 1-3.95 0 1.975 1.975 0 0 1 3.95 0z" fill="#e5e5e5" fill-rule="evenodd" stroke-width=".25"/><path d="M376.975 143.937a1.975 1.975 0 1 1-3.95 0 1.975 1.975 0 0 1 3.95 0z" fill="#e5e5e5" fill-rule="evenodd" stroke-width=".25"/><path d="M376.975 144.887a1.975 1.975 0 1 1-3.95 0 1.975 1.975 0 0 1 3.95 0z" fill="#e5e5e5" fill-rule="evenodd" stroke-width=".25"/><path d="M376.975 146.598a1.975 1.975 0 1 1-3.95 0 1.975 1.975 0 0 1 3.95 0zM376.975 169.89a1.975 1.975 0 1 1-3.95 0 1.975 1.975 0 0 1 3.95 0zM376.975 165.518a1.975 1.975 0 1 1-3.95 0 1.975 1.975 0 0 1 3.95 0zM376.975 160.916a1.975 1.975 0 1 1-3.95 0 1.975 1.975 0 0 1 3.95 0z" fill="#e5e5e5" fill-rule="evenodd" stroke-width=".25"/><path d="M376.975 148.78a1.975 1.975 0 1 1-3.95 0 1.975 1.975 0 0 1 3.95 0z" fill="#e5e5e5" fill-rule="evenodd" stroke-width=".25"/><path d="M376.975 151.89a1.975 1.975 0 1 1-3.95 0 1.975 1.975 0 0 1 3.95 0zM376.975 156.233a1.975 1.975 0 1 1-3.95 0 1.975 1.975 0 0 1 3.95 0z" fill="#e5e5e5" fill-rule="evenodd" stroke-width=".25"/><path d="m371.951 180.007 1.49 1.418v3.143l-1.49 1.418c-1.27 1.21-2.526.536-5.543 1.796-.124-.952-.07-1.739.582-2.44-1.955-.118-3.513-1.13-4.783-2.345 1.27-1.215 2.828-2.228 4.783-2.346-.652-.701-.706-1.488-.582-2.44 3.017 1.26 4.273.587 5.543 1.796z" fill="#eac102" stroke-width=".25"/><path d="M372.714 182.996h-8.701M373.091 184c-2.55 1.59-3.6 1.121-5.486 2.447M373.091 181.994c-2.55-1.591-3.6-1.122-5.486-2.448" fill="none" stroke-width=".25"/><path d="m376.562 181.427 1.41-1.498c1.201-1.278.532-2.541 1.785-5.577-.946-.124-1.729-.07-2.426.586-.117-1.967-1.123-3.534-2.331-4.813-1.208 1.279-2.214 2.846-2.331 4.813-.697-.656-1.48-.71-2.426-.586 1.253 3.036.584 4.3 1.786 5.577l1.409 1.498z" fill="#eac102" stroke-width=".25"/><path d="M375 180.697v-8.755M374.003 181.076c-1.581-2.567-1.115-3.622-2.433-5.52" fill="none" stroke-width=".25"/><path d="M331.273 200.695c-2-.855-5.433-5.033-7.037-7.203l-2 1.5c2.594 3.445 4.675 5.614 6.256 6.883.79.635 1.48 1.06 2.203 1.273zM418.727 200.695c2-.855 5.433-5.033 7.037-7.203l2 1.5c-2.594 3.445-4.675 5.614-6.256 6.883-.79.635-1.48 1.06-2.203 1.273z" fill="#eac102" stroke-width=".25"/><path d="M376.25 183.733v4.164c0 8.358 12.796 8.62 13.648-.056.062-.63.756-1.094 1.377-1.018.622.075 1.175.69 1.1 1.318-1.034 8.625 10.399 9.112 12.047.625l.765-3.943c.124-.636.828-1.084 1.458-.96s1.119.806.996 1.442l-.766 3.95c-1.754 9.048 7.16 8.567 11.336 1.383.332-.572 1.156-.776 1.719-.435.562.342.755 1.163.43 1.739-4.834 8.55 1.425 6.941 5.304 1.674l2.805-3.808c.392-.532 1.228-.654 1.754-.256.525.397.646 1.242.254 1.773l-2.813 3.808c-4.866 6.589-11.186 6.94-11.508 1.474-4.238 3.091-9.965 2.63-11.601-2.5-4.147 4.78-11.722 4.126-14-1.296-4.349 5.698-12.455 4.817-15.555-.272-3.1 5.09-11.206 5.97-15.555.272-2.278 5.422-9.853 6.076-14 1.295-1.636 5.13-7.363 5.592-11.601 2.5-.322 5.467-6.642 5.116-11.508-1.473l-2.813-3.808c-.392-.531-.272-1.376.254-1.773.526-.398 1.362-.276 1.754.256l2.805 3.808c3.879 5.267 10.138 6.875 5.305-1.674-.326-.576-.133-1.397.43-1.739.562-.34 1.386-.137 1.718.435 4.176 7.184 13.09 7.665 11.336-1.383l-.766-3.95c-.123-.636.367-1.319.996-1.442s1.334.324 1.457.96l.766 3.943c1.648 8.487 13.08 8 12.047-.624-.075-.629.478-1.244 1.1-1.32.621-.075 1.315.39 1.376 1.02.853 8.675 13.649 8.413 13.649.055v-4.164c0-.664.588-1.288 1.25-1.288s1.25.624 1.25 1.288z" fill="#eac102" stroke-width=".25"/><path d="M375 208.053c-34.954 0-45.642-3.972-45.642-4.566s10.688-4.566 45.642-4.566 45.642 3.972 45.642 4.566c0 .594-10.688 4.566-45.642 4.566zm-34.471.79c-8.14-1.068-14.154-2.749-14.154-5.356 0-6.06 32.486-7.112 48.625-7.112s48.625 1.052 48.625 7.112c0 2.607-6.015 4.288-14.154 5.356z" fill="#eac102" fill-rule="evenodd" stroke-width=".25"/><path d="m349.124 208.843-17.265 3.651c-.645-3.082-1.255-5.882-2.732-8.763-.785-1.532 14.943-5.01 45.873-5.01s46.658 3.478 45.873 5.01c-1.477 2.881-2.087 5.681-2.732 8.763l-17.265-3.651z" fill="#eac102" stroke-width=".25"/><path d="m328.996 207.913 1-2.23 3.25.558-2.167 2.866z" fill="#ed1c24" stroke-width=".25"/><path d="m328.996 207.913 4.25-1.672" fill="none" stroke-width=".25"/><path d="m344.444 202.57 8.96-.84c.897-.084 1.686.57 1.77 1.466s-.57 1.686-1.466 1.77l-8.96.84c-.897.084-1.686-.57-1.77-1.466s.57-1.686 1.466-1.77z" fill="#008f4c" fill-rule="evenodd" stroke-width=".25"/><path d="M339.712 205.128a1.975 1.975 0 1 1-3.95 0 1.975 1.975 0 0 1 3.95 0zM363.369 202.996a1.975 1.975 0 1 1-3.95 0 1.975 1.975 0 0 1 3.95 0z" fill="#e5e5e5" fill-rule="evenodd" stroke-width=".25"/><path d="M417.122 213.25c0 .553-9.864 4.254-42.122 4.254s-42.122-3.7-42.122-4.254c0-.553 9.864-4.254 42.122-4.254s42.122 3.7 42.122 4.254zm2.753 0c0 5.645-29.98 6.625-44.875 6.625s-44.875-.98-44.875-6.625 29.98-6.625 44.875-6.625 44.875.98 44.875 6.625z" fill="#eac102" fill-rule="evenodd" stroke-width=".25"/><path d="M352.571 188.455c-2.717-.917-4.05-.132-5.527-1.246l-1.677-1.264-.647-3.131 1.095-1.546c.93-1.313 2.79-.986 4.788-2.331.31.934.422 1.721-.04 2.481 1.843-.073 3.502.789 4.934 1.873-.932 1.331-2.174 2.489-3.969 2.796.75.633.963 1.41 1.043 2.368zM341.37 187.802l1.094-1.554-.647-3.13-1.675-1.258c-1.443-1.082-2.901-.358-5.529-1.253.08.958.292 1.735 1.043 2.368-1.795.307-3.035 1.472-3.968 2.803 1.432 1.084 3.09 1.939 4.933 1.866-.462.76-.35 1.548-.04 2.481 2.48-1.49 3.865-1.012 4.79-2.324z" fill="#eac102" stroke-width=".25"/><path d="M341.476 184.807c-3.778-.046-4.846.442-8.172.809M341.358 183.58c-2.398-1.501-4.084-.871-5.614-1.943M341.803 186.104c-1.635 1.602-2.887 1.04-4.306 2.396" fill="none" stroke-width=".25"/><path d="m340.193 181.774 1.619 1.351 2.916-.305.997-1.624c.843-1.374-.023-2.916.523-5.713-.906-.032-1.624.098-2.138.817-.513-1.942-1.947-3.566-3.597-4.445-.49 1.683-1.241 3.206-.513 5.13-.783-.583-1.76-.792-2.615-.577 1.696 2.611 1.326 4.13 2.808 5.366z" fill="#eac102" stroke-width=".25"/><path d="M344.162 182.235c.765-1.82.084-3.576 1.063-5.614M342.159 182.61c-1.942-1.974-1.83-3.772-3.266-5.226M343.12 182.247c-1.232-3.298-.936-5.815-2.068-8.712M345.05 183.248c1.626-1.801 3.041-1.302 4.675-2.797M345.449 185.383c2.335.933 3.106.366 5.605 1.847M345.73 184.362c3.534-.972 4.99-.304 8.215-.893" fill="none" stroke-width=".25"/><path d="M346.036 184.527a2.525 2.525 0 1 1-5.05 0 2.525 2.525 0 0 1 5.05 0z" fill="#ed1c24" fill-rule="evenodd" stroke-width=".25"/><path d="M317.31 187.934c-1.726-2.464-3.156-4.046-8.435-4.503 1.806-2.732 5.567-3.523 8.014-1.03.231-.682.374-.904 1.02-1.535.578 1.78 3.146 3.124 2.127 6.31l-1.001 3.13z" fill="#eac102" stroke-width=".25"/><path d="M318.607 189.797c.953-1.71 1.14-2.648 1.854-3.578.712-.929 1.878-1.745 2.724-2.474.371.857.583 1.605.406 2.424 1.223-.385 2.485.171 3.634.983-.393 1.456-1.023 2.796-2.172 3.401.613.49.891 1.21 1.112 2.13 0 0-2.639-.214-3.788.05-1.312.302-2.308-.262-2.524-.474z" fill="#eac102" stroke-width=".25"/><path d="M318.33 189.346c-.154-1.303.292-2.478.212-3.524-.145-1.914-.768-2.544-.686-3.546M319.257 190.918c2.054-1.67 3.934-1.975 6.405-3.386M318.902 189.993c.898-1.52 2.747-2.367 3.744-4.73M319.545 191.777c1.766.243 2.837-.786 4.95-.015" fill="none" stroke-width=".25"/><path d="M319.853 192.258c-.33.16-.693.252-1.084.252a2.525 2.525 0 0 1-2.525-2.525c0-.85.422-1.594 1.067-2.051 1.268.806 2.346 2.76 2.542 4.325z" fill="#ed1c24" fill-rule="evenodd" stroke-width=".25"/><path d="M397.429 188.455c2.717-.917 4.05-.132 5.527-1.246l1.677-1.264.647-3.131-1.095-1.546c-.93-1.313-2.79-.986-4.788-2.331-.31.934-.422 1.721.04 2.481-1.843-.073-3.502.789-4.934 1.873.932 1.331 2.174 2.489 3.969 2.796-.75.633-.963 1.41-1.043 2.368zM408.183 183.117l1.675-1.257c1.443-1.082 2.901-.358 5.529-1.253-.08.958-.292 1.735-1.043 2.368 1.795.307 3.035 1.472 3.968 2.803-1.432 1.084-3.09 1.939-4.933 1.866.462.76.35 1.548.04 2.481-2.48-1.49-3.865-1.012-4.79-2.324l-1.093-1.553z" fill="#eac102" stroke-width=".25"/><path d="M408.524 184.807c3.778-.046 4.846.442 8.172.809M408.642 183.58c2.398-1.501 4.084-.871 5.614-1.943M408.197 186.104c1.635 1.602 2.887 1.04 4.306 2.396" fill="none" stroke-width=".25"/><path d="m405.272 182.82-.997-1.624c-.843-1.374.023-2.916-.523-5.713.906-.032 1.624.098 2.138.817.513-1.942 1.947-3.566 3.597-4.445.49 1.683 1.241 3.206.513 5.13.783-.583 1.76-.792 2.615-.577-1.696 2.611-1.326 4.13-2.808 5.366l-1.619 1.351z" fill="#eac102" stroke-width=".25"/><path d="M405.838 182.235c-.765-1.82-.084-3.576-1.063-5.614M407.841 182.61c1.942-1.974 1.83-3.772 3.266-5.226M406.88 182.247c1.232-3.298.936-5.815 2.068-8.712M404.95 183.248c-1.626-1.801-3.041-1.302-4.675-2.797M404.551 185.383c-2.335.933-3.106.366-5.605 1.847M404.27 184.362c-3.534-.972-4.99-.304-8.215-.893" fill="none" stroke-width=".25"/><path d="M403.964 184.527a2.525 2.525 0 1 0 5.05 0 2.525 2.525 0 0 0-5.05 0z" fill="#ed1c24" fill-rule="evenodd" stroke-width=".25"/><path d="M432.69 187.934c1.726-2.464 3.156-4.046 8.435-4.503-1.806-2.732-5.567-3.523-8.014-1.03-.231-.682-.374-.904-1.02-1.535-.578 1.78-3.146 3.124-2.127 6.31l1.001 3.13z" fill="#eac102" stroke-width=".25"/><path d="M431.393 189.797c-.953-1.71-1.14-2.648-1.854-3.578-.712-.929-1.878-1.745-2.724-2.474-.371.857-.583 1.605-.406 2.424-1.223-.385-2.485.171-3.634.983.393 1.456 1.023 2.796 2.172 3.401-.613.49-.891 1.21-1.112 2.13 0 0 2.639-.214 3.788.05 1.312.302 2.308-.262 2.524-.475z" fill="#eac102" stroke-width=".25"/><path d="M431.67 189.346c.154-1.303-.292-2.478-.212-3.524.145-1.914.768-2.544.686-3.546M430.743 190.918c-2.054-1.67-3.934-1.975-6.405-3.386M431.098 189.993c-.898-1.52-2.747-2.367-3.744-4.73M430.455 191.777c-1.766.243-2.837-.786-4.95-.015" fill="none" stroke-width=".25"/><path d="M430.147 192.258c.33.16.693.252 1.084.252a2.525 2.525 0 0 0 2.525-2.525c0-.85-.422-1.594-1.067-2.051-1.268.806-2.346 2.76-2.542 4.325z" fill="#ed1c24" fill-rule="evenodd" stroke-width=".25"/><path d="m378.049 180.007-1.49 1.418v3.143l1.49 1.418c1.27 1.21 2.526.536 5.543 1.796.124-.952.07-1.739-.582-2.44 1.955-.118 3.513-1.13 4.783-2.345-1.27-1.215-2.828-2.228-4.783-2.346.652-.701.706-1.488.582-2.44-3.017 1.26-4.273.587-5.543 1.796z" fill="#eac102" stroke-width=".25"/><path d="M377.286 182.996h8.701M376.909 184c2.55 1.59 3.6 1.121 5.486 2.447M376.909 181.994c2.55-1.591 3.6-1.122 5.486-2.448M375.997 181.076c1.581-2.567 1.115-3.622 2.433-5.52" fill="none" stroke-width=".25"/><path d="M377.525 182.996a2.525 2.525 0 1 1-5.05 0 2.525 2.525 0 0 1 5.05 0z" fill="#ed1c24" fill-rule="evenodd" stroke-width=".25"/><path d="M360.762 187.298a1.975 1.975 0 1 1-3.95 0 1.975 1.975 0 0 1 3.95 0zM332.438 190.582a1.975 1.975 0 1 1-3.95 0 1.975 1.975 0 0 1 3.95 0zM389.238 187.298a1.975 1.975 0 1 0 3.95 0 1.975 1.975 0 0 0-3.95 0zM417.562 190.582a1.975 1.975 0 1 0 3.95 0 1.975 1.975 0 0 0-3.95 0z" fill="#e5e5e5" fill-rule="evenodd" stroke-width=".25"/><path d="M380.472 140.765c.214-.538.08-2.107 0-2.183 0-.357-1.89-.65-4.399-.718v-3.77c-.359-.062-.716-.095-1.073-.095s-.714.033-1.073.095v3.77c-2.509.068-4.4.36-4.4.718-.08.076-.213 1.645 0 2.183 0-.407 2.45-.74 5.473-.74s5.473.333 5.473.74z" fill="#eac102" stroke-width=".25"/><path d="m421.004 207.913-1-2.23-3.25.558 2.167 2.866z" fill="#ed1c24" stroke-width=".25"/><path d="m421.004 207.913-4.25-1.672" fill="none" stroke-width=".25"/><path d="m405.556 202.57-8.96-.84c-.897-.084-1.686.57-1.77 1.466s.57 1.686 1.466 1.77l8.96.84c.897.084 1.686-.57 1.77-1.466s-.57-1.686-1.466-1.77z" fill="#008f4c" fill-rule="evenodd" stroke-width=".25"/><path d="M410.288 205.128a1.975 1.975 0 1 0 3.95 0 1.975 1.975 0 0 0-3.95 0zM386.631 202.996a1.975 1.975 0 1 0 3.95 0 1.975 1.975 0 0 0-3.95 0z" fill="#e5e5e5" fill-rule="evenodd" stroke-width=".25"/><path d="m370.147 201.062-2.521 1.681 2.521 1.68h9.706l2.521-1.68-2.521-1.68z" fill="#ed1c24" stroke-width=".25"/><path d="m370.147 201.062 2.33 1.505-2.33 1.857" fill="none" stroke-width=".25"/><path d="m367.626 202.743 4.852-.176h5.044l4.852.176" fill="none" stroke-width=".25"/><path d="m379.853 201.062-2.33 1.505 2.33 1.857" fill="none" stroke-width=".25"/><path d="M312.625 215.125v118.563c0 17.224 13.963 31.187 31.188 31.187h15.593c6.822 0 12.73 4.29 15.594 10 2.864-5.71 8.771-10 15.594-10h15.594c17.224 0 31.187-13.963 31.187-31.188V215.125z" fill="#eac102" stroke-width=".25"/><path d="M312.625 215.125V290h124.75v-74.875z" fill="#ed1c24" stroke-width=".25"/><path d="m332.37 247.704-7.245 32.518h43.933c1.39 2.213 5.126 2.215 5.942 2.215s4.552-.002 5.942-2.215h43.933l-7.244-32.518-42.631 1.42z" fill="#e3e4e5" stroke-width=".25"/><path d="M422.589 278.805c-7.608-2.535-39.84-7.83-41.647 0-1.155-1.684-4.109-1.425-5.942-1.825-1.833.4-4.787.14-5.942 1.825-1.807-7.83-34.04-2.535-41.647 0l6.048-30.509c1.986-1.84 2.82-4.849 3.159-6.513 8.084-3.618 35.292-8.943 38.382 4.924 3.09-13.867 30.298-8.542 38.382-4.924.338 1.664 1.173 4.673 3.159 6.513z" fill="#e3e4e5" stroke-width=".25"/><path d="M327.411 278.805c2.276-2.114 3.232-5.57 3.619-7.481M375 246.707v30.273" fill="none" stroke-width=".25"/><path d="m336.618 241.783-5.588 29.541c9.261-4.156 40.43-10.271 43.97 5.656 3.54-15.927 34.71-9.812 43.97-5.656l-5.587-29.54M369.058 278.805v1.418M380.942 278.805v1.418" fill="none" stroke-width=".25"/><path d="M422.589 278.805c-2.276-2.114-3.232-5.57-3.619-7.481" fill="none" stroke-width=".25"/><path d="M348.577 241.297c8.923 5.617-1.73 13.378-7.391 13.632-3.448.155-4.187-1.82-3.091-4.216 1.02-2.232 3.591-4.443 5.42-6.26 2.31-2.294 3.914-3.878 5.062-3.156z" fill="#c87137" stroke-width=".25"/><path d="M357.715 233.447c1.333.42 6.205 3.712 7.256 5.675l-9.944 9.9-4.838-6.336c-2.262-2.963 1.55-4.309 3.401-6.166 1.683-1.688 3.037-3.416 4.125-3.073z" fill="#c87137" stroke-width=".25"/><path d="m369.779 228.947 1.226 9.032c-4.853-1.066-7.362.71-11.063.762-3.997.056-2.588-5.771-2.108-8.256.703-3.64 4.158-2.05 6.803-2.13 2.404-.072 4.6-.395 5.142.592z" fill="#c87137" stroke-width=".25"/><path d="M379.888 223.02c2.52 1.233 4.525 3.172 9.138 5.015 4.464 1.783 3.592 11.477-.941 12.671l-15.723-.792c-2.994-1.913-3.455-7.338-4.031-9.767-.78-3.291 7.98-8.878 11.557-7.128zM350.861 241.44c1.334.433 4.862 3.954 5.913 5.973 1.278 2.454 1.313 8.168-3.897 7.465-2.32-.313-5.603-.46-7.526-.407-3.449.095-4.052-1.35-2.956-3.665 2.31-4.877 6.181-10.106 8.466-9.365z" fill="#c87137" stroke-width=".25"/><path d="M368.33 236.746c2.731-.123 5.592.532 11.826 1.452 3.37.498 5.743 4.878 5.107 8.052l-27.683 7.391c-2.59-.857-4.807-3.833-.537-8.447 4.438-4.796 6.344-8.224 11.288-8.448z" fill="#c87137" stroke-width=".25"/><path d="M382.4 239.617c2.085-.939 5.448-1.025 8.648-.083l2.034 9.423-10.637 1.744c-2.588-4.688-3.734-9.421-.044-11.084z" fill="#c87137" stroke-width=".25"/><path d="M395.61 231.599c3.625 1.321 9.085 4.755 7.257 10.427l-12.9 5.808c-1.65-1.517-6.895-7.875-4.032-9.636 2.635-1.62.305-3.935 3.05-3.337 2.656.58 3.452-4.42 6.625-3.262zM367.39 243.314c2.151.781 4.593 3.053 6.182 5.94 1.305 2.373 1.294 7.088-3.629 5.28-3.529-1.297-8.022-.337-9.944 0-3.397.595-4.912-1.363-3.494-3.432 3.25-4.743 7.077-9.17 10.885-7.788z" fill="#c87137" stroke-width=".25"/><path d="M388.488 248.259c3.37-.491 3.055 4.218-1.881 6.072-3.068 1.152-7.447.406-10.75-.132-3.688-.601-3.343-2.307-3.36-4.224-.038-4.157 4.092-2.997 5.913-4.62 3.51-3.13 1.398 4.168 10.078 2.904z" fill="#c87137" stroke-width=".25"/><path d="M401.658 240.156c3.652 1.245 1.828 3.83 8.466 6.203 3.202 1.145 3.19 7.122-1.344 8.316-3.173.835-7.178-.518-10.482-1.32-2.835-.688-4.89 1.838-6.316.528-1.65-1.517-4.053-4.69-2.419-6.6 4.057-4.743 9.224-8.106 12.095-7.127zM372.782 346.901c-.084 1.61 0 6.201-.1 7.792-.092 1.445-.502 2-2.75 2.62h2.932c.405 0 .81-.375 1.214-.468.068.082.223.468.484.468h1.507c.356 0 .497-.38.741-.468.299.146.883.468 1.418.468h1.84c-1.762-.53-2.709-1.516-2.75-2.62-.03-.84.212-4.766.108-5.493-.377-2.645-.135-4.51-.28-5.525-.049-.347.241-1.857.193-2.43-.01-.114 2.321-1.032 3.416-1.88.191.09 3.866 1.523.867-.563.77-.336 1.792-.756 1.887-.844-.155.006-.373-.662-.503-.606-1.496.654-2.032.789-2.751 1.204-.557.33-2.086.55-2.963 1.09.079-.884-.2-1.501.217-2.099.417-.598 2.075-1.608 3.86-2.808 2.585.513 3.352.804 4.758.55l-.067-.61c-1.047.086-1.588-.388-3.384-.79.485-.303.936-.573 1.32-.784 1.57-.867 6.317-1.595 7.294-1.988l-.338-.815c-.276-.298-4.916.964-5.79.59-1.127-.48 2.638-4.302 2.141-4.508l-.892-.369c-.787.907-3.79 5.621-4.211 6.05-1.208 1.23-4.56 3.057-5.2 3.064-.02-2.048.36-2.567.358-3.376.42-.31 4.932-2.758 5.64-3.178l-.202-1.113c-.421.075-4.325 2.552-5.474 2.88-.1-1.893-.42-3.37.114-5.054-.074-.093 1.52-2.345 1.818-2.581l-.569-2.503c-.322.188-2.295 4.086-2.831 3.786-.64-.358-2.518-3.176-3.01-3.786l-1.288.896c.048.621 1.407 2.928 1.664 3.49.08.99.365 2.118.068 3.809.261 1.685-.055 2.319-.036 3.481.008.474-.033 1.32-.214 1.855-1.037-1.29-1.916-1.698-1.91-2.469.007-.889-.637-4.205-.464-4.505-.743-2.126-2.73-4.467-3.05-4.791l-.998.558c.455.442 1.99 2.376 2.266 3.128.633 1.728.786 5.501.695 5.465-.95-.772-2.149-1.587-3.001-1.899-.807-1.341-1.607-4.115-2.527-5.265l-.828-.009h0c.647 1.613 1.337 2.96 1.875 4.867-1.293.035-3.443-.066-6.386 1.493l.455.924c2.678-.9 5.73-1.658 7.501-.35 2.221.89 3.453 2.275 4.916 4.256.74 1.001 1.334.62 1.265 2.772-.081.303-2.233-.3-3.96-.768-.22-.725-.939-.934-1.092-1.243l-.16.075c-.049.21.528.763.55 1.188l-1.72.131c-.485.037-1.363.188-.093.27l1.779.114c1.942.75 4.328 1.353 4.573 1.437-.027.324-.024 1.741-.063 2.13-.078.784.284 2.544.121 5.657z" fill="#c87137" stroke-width=".25"/><path d="M361.687 324.79c-.474-.128-.742.736-1.362.024-.608-.699-.72 2.119-1.35.913-.42-.806-.753-.198-1.294-.073-.36.083.324-.856-.468-.482-1.058.5-.415-1.068-1.37-.645-.804.356-.068-1.283-1.194-.997-1.177.299-1.054-1.163-2.253-1.033-1.076.117.554-1.612-.751-1.044-.778.339-.637-.242-.79-.746-.143-.467-1.391-.762-.307-1.028 1.141-.28-.326-.536-.434-1.046-.073-.347 1.625-.315.55-.65-.344-.108.464-.932-.336-.603-1.157.475.029-1.284-.889-1.295-1.135-.012-.442-1.078.124-1.298.478-.185-1.922-.04-1.012-.61.648-.406-.076-.307-.263-.561-.5-.68 2.13-.418.61-.774-1.347-.315.633-1.044 1.37-.946.534.07.084-.355.742-.506.345-.078-1.262-.735-.285-.974.515-.126 1.108-.573.376-.614-1.183-.068.637-1.155-.571-1.048-.866.077-.806-.213-.137-.625.742-.458 1.48-.784 2.08-.055.432.525 1.832-.595 1.129-.517-.987.108-.284-.776-.619-.703-1.083.236-1.258-.915-.2-.928.719-.009-.049-1.001.771-.547.511.284 1.226-.358 1.374-.153.697.966 2.164-.278 2.219.783.04.788.43.777.715-.032.257-.73-.49-.88.38-.831.785.044-.41-1.225.542-.709.443.24.669 1.083.904.086.18-.765.998.4 1.921.093.937-.31.082 3.135 1.358 1.963" fill="#008f4c" fill-rule="evenodd" stroke-width=".25"/><path d="M349.236 314.314c.298.583-1.5-.274-.974.727.774 1.471-1.717-.254-1.413.829.35 1.24.31 1.128 0 1.644-.113.187.598.05.58.332-.026.385-.58.513-.58.737 0 .445 1.106.604.91 1.013-.39.81.025.7.41 1.177.547.677-.333 1.855.5 2.566.553.473-.49 1.927.64 1.715 1.379-.26-.9 1.49.433 1.61.787.071.646 2.258 1.342 1.004.707-1.273.68 1.157 1.011.95.403-.253.717-1.43.707-.253-.004.535 1.123-.136.476.751-.598.821 1.198.94 1.18 1.022-.296 1.326.67 1.805 1.306.85.238-.358-.533 2.278.301 1.68.752-.54.307.07.554.486.488.821 1.34-1.83.943-.379-.138.504.058 1.323.272 1.323.425 0 .915-1.107.89-1.762-.022-.551.01-.53.542-.566.54-.037.33-.908.457-.051.146.99.386.003.929-.34.757-.48-.052 1.558.924 1.082 1.1-.538-.261 1.785.645 1.637.713-.116 1.71-1.268 1.031-2.358-.451-.726.583-2.24.868-1.365.17.52-.528.978.202.895.723-.083-.38.577.323 1.175.924.788.454-1.16 1.441-.196.31.302-.323-1.364.646-1.756.669-.27-.51-1.133-.025-1.818.726-1.027-1.61-1.13-.75-1.973.472-.462.698.976 1.533.706.912-.294.172-.271.89-.044.654.206-1.166-2.18.051-1.583 1.04.51-.095-1.13.523-1.862.687-.814-1.384-1.057-1.387-1.649 0-.233.383-.24.544-.422M397.793 316.532c-.053.475 2.31-.299 2.072.613-.294 1.126 2.086-.764 1.804.248-.241.865-.396.847.528.932.815.076-1.112.333-.063.595 1.253.312-.543.536.904 1.314.645.347-1.202.96-.46 1.583.657.552-.273.875.46 1.83.323.421-1.878-.056 0 1.385.467.36-1.13.37-.787 1.397.2.602-1.904-.737-1.369.468.492 1.106-1.294.005-1.135.236.543.793-.801.775-.459.888 1.372.451-.618 1.035-.491 1.156.691.657.173 1.334-.874.976-.608-.208 1.468 1.023.21 1.094-.647.036-.674-.421-.477.442.174.768-1.715-.197-1.582-.118 1.066.64.006 1.228-.739.628-.425-.342-.445-.683-1.114-.495-.701.198-.412-.34-.484.296-.119 1.059-1.82-.806-1.532.365.298 1.21.078.515-.241 1.61-.103.35-1.133-.697-1.558-.672-.825.05-.215-.52-.914-1.102-.507-.42-1.601-.065-.447.347.492.176-1.423.367-.341.75.43.153-.095.843-.538.677-.546-.205-.835.377-1.274 0-.615-.529-.703-.502-1.226-.906-.408-.315.153-.887-.626-1.175-1.04-.385.511-.616-.399-.972-.287-.112-.611.106-.883.337-.414.353-.584-.407-.933.124-.41.62-.118-1.294-.28-1.157-.479.405-1.093.672-1.036-.167.038-.555-.911-.783-1.187-1.153-.447-.6 2.454-1.388 2.207-1.746-.138-.201-1.45-.43-1.685-.503" fill="#008f4c" fill-rule="evenodd" stroke-width=".25"/><path d="M378.521 325.91c.571-.114-.15.956.898.668 1.39-.383-.77 1.603.384 1.468.792-.092 1.081-.617 1.233.22.14.773.362-.945.787-.015.4.878.914-.814 1.588.238.308.48.884-1.07 1.666-.418.851.71 1.593-.55 2.565.164.615.451.49-1.71 1.187-.555.628 1.041.9-.591 2.005-.4.906.158-1.005-1.318.317-1.167.609.07 1.136.018.566-.521-.488-.463-.268-.323.363-.35.3-.013.165-1.004.614-.333.508.76 1.195-.83 1.22-.813.8.502 1.678.033 1.108-.842-.313-.482 1.357 1.1 1.344.029-.006-.536-.377-.498.487-.458.882.042-.407-1.394-.274-1.272.824.753 1.514-.14.7-.684-.426-.286-.939-.063-.696-.842.205-.659-.417-.31.316-.437 1.136-.195-1.068-1.602.392-1.241 1.095.27.127-1.323 1.293-.572s.217-.877.086-1.312c-.207-.688-1.18.085-1.886-.363-.622-.395-.2-1.257.37-.417.313.463.199-1.1.936-.32.358.38 1.368-.527.569-.902-.719-.336.91-.706-.24-.836-.599-.068-.475-.23-.876-.758-.404-.533-1.093.209-1.538-.377-.65-.854-1.505 1.243-1.815.296-.225-.69.095-.975.89-1.194.248-.069-.868-.399-.006-.757 1.046-.434-1.482.032-1.284-.14.451-.39.717-.981-.291-.823-.662.103-.604-.325-1-.477-.818-.312-1.195 1.104-1.695.944-.196-.063-.091-.395-.201-.578" fill="#008f4c" fill-rule="evenodd" stroke-width=".25"/><path d="M382.64 304.45c.365.143.216-.835.845-.56.868.38-.129-1.293.736-1.288.466.003.536.705.933-.064.425-.824-.014.785.597-.037.577-.776.46.784 1.167-.11.273-.344.233.988.946.417.819-.656.99.517 1.757-.007.947-.645-.045 1.397.786.507.571-.613.487-.118.772.239.24.302 1.12.094.385.673-.942.744.67.397.508.684-.199.352-1.093.812-.254.621.322-.073-.254.97.434.278.57-.573.502.825.541.805.934-.482 1.111.32.41.938-.249.218 1.462-.76.97.014-.388.607-.135.217.25.355.56.2-1.42 1.393-.37.862.951-.48.232.887-.398 1.002-.313.058-.332.09-.363.515-.038.521-.653.369-.023.407.534.033-.192.436-.444.79-.274.384.65-.063.726.204.133.468-.362 1.035.42.635.95-.486-.245.788-.428 1.137-.371.703-.768-.076-1.48.308-.464.25-.6 1.14.038.442.463-.507-.235.987.604.266.4-.344.686.578.023.862-.519.222.439.59-.348.67-.48.05-.561.23-.887.645-.253.322-.691-.317-1.155.235-.385.457-.546.075-.74-.294-.129-.243-.497-.164-.425.307.073.478.372.764.156.874-.775.393.01.584-.169.827-.337.46-1.217-.666-1.022.212.171.77-.775.12-1.333.715-.506.538-.575-1.078-.975-.823-.152.096-.166.308-.292.445" fill="#008f4c" fill-rule="evenodd" stroke-width=".25"/><path d="M366.502 325.742c.57-.115-.15.955.897.667 1.391-.383-.769 1.603.385 1.469.79-.092 1.08-.618 1.233.22.14.773.362-.946.787-.016.4.877.914-.814 1.588.238.308.48.883-2.273 1.665-1.621.852.71 1.172-.551 2.145.163.614.451 1.332-1.285 2.029-.13.627 1.041.479.188 1.583.38.906.156-1.004-1.32.318-1.168.608.07 1.135.018.566-.522-.489-.462-.268-.322.362-.35.3-.013.165-1.003.614-.332.508.76 1.195-.83 1.22-.813.8.501 1.678.032 1.109-.843-.314-.481 1.356 1.101 1.344.03-.007-.537-.377-.498.487-.458.882.041-.408-1.394-.274-1.272.824.753 1.514-.14.7-.685-.426-.285-.94-.063-.697-.841.206-.659-.417-.31.316-.437 1.136-.195-1.067-1.602.393-1.242 1.095.27.126-1.322 1.292-.571 1.167.75.533-1.229.087-1.313-3.248-.609-1.124-1.486-.58-1.1.425.303 1.368-.527.568-.9-.718-.338.911-.707-.24-.837-.598-.068-.475-.23-.875-.758-.405-.533-1.093.208-1.539-.377-.649-.854-1.504 1.243-1.814.295-.226-.688.095-.974.89-1.194.248-.068-.869-.398-.006-.756 1.045-.435-1.483.031-1.284-.14.45-.39.717-.981-.292-.823-.661.103-.604-.325-1-.477-.818-.313-1.194 1.104-1.695.943-.196-.063-.09-.394-.2-.577" fill="#008f4c" fill-rule="evenodd" stroke-width=".25"/><path d="M350.864 316.235s.22.05.215.135c-.016.307-.767.103-.829.404-.08.39 1.414 1 .778.903-.843-.128-2.46.359-1.853.541 0 0 1.057-.042 1.154.348.103.416-1.111.522-.915.902.139.269.71-.398.893-.157.186.245-.522.553-.397.835.162.369 1.037-.032 1.158.353.075.24-.559.357-.467.591.156.4.974-.105 1.274.204.302.313-.096.946.164 1.295.214.288.775.145.986.437.205.285-.178.833.1 1.048.374.288 1.11-.602 1.4-.228.234.303-.655.72-.464 1.053.205.355.86-.055 1.224.135.302.158.33.768.67.77.434.002.432-.976.865-.97.425.004.403.994.827.97.383-.022.262-.998.643-.955.219.025.042.513.236.618.29.158.793-.481.968-.202.133.214-.886.24-.464.597.501.424 1.017-.102 1.656.11.502.168.27 1.493.707 1.115l.965-.834c.334-.289-.524.905.157 1.298.377.217.63-.846.98-.664.188.097-.144.494.015.634.183.16.525.06.727-.077.305-.208.164-1.11.512-.984.23.082-.224.482-.152.715.052.167.208.343.382.362.302.032.617-.216.779-.473.241-.382-.268-1.15.137-1.35.145-.07.258.305.412.255.235-.076.035-.67.281-.685.248-.016.154.518.366.648.195.119.51.175.686.028.2-.168-.113-.634.106-.778.206-.136.57-.002.713.2.11.154-.185.45-.036.566.326.252.822-.602 1.174-.388.343.208-.184 1.052.194 1.187.4.144.654-.544.96-.84.222-.213.66-.365.633-.671-.027-.31-.59-.287-.747-.554-.16-.274-.297-.678-.124-.944.175-.27.708-.511.925-.274.192.211-.496.573-.318.796.233.293.893-.475 1.108-.17.135.19-.419.4-.331.617.134.332.69.46 1.022.327.31-.123.176-.748.483-.877.228-.095.54.376.713.2.313-.317-.607-.898-.38-1.281.118-.199.62.078.677-.145.095-.377-.858-.37-.886-.757-.015-.215.373-.277.427-.486.057-.22.034-.524-.144-.664-.204-.16-.546.133-.778.018-.226-.112-.895-.724-.446-.61.54.14 1.035.15 1.36-.292.274-.374.331.533.557.454.23-.082-.065-.604.151-.716.322-.165 1.3.893.993.435-.28-.416-2.151-1.102-1.182-1.16 0 0 1.088.302 1.284-.079.202-.393-.794-.69-.705-1.123.036-.178.447-.13.447-.311 0-.188-.461-.323-.461-.323-.496-.348-2.107.11-1.672-.28l.68-.61c.002-.002-.01 0-.012-.004" fill="#008f4c" fill-rule="evenodd" stroke-width=".25"/><path d="M359.423 305.586c-.211-2.147-1.223-1.935-1.496-1.945-.307-.012-.478-.025-.39.471.206 1.141-1.463-.86-1.798.03-.221.586.813 1.053-.393 1.054-1.086.002 1.03.428-.083.626-1.232.218.939.963-.487 1.266-.49.105 1.215.753.35 1.281-.723.44.003.945-.119 1.574-.132.685-.939.946.121 1.16 1.352.273-1.627.653-.22 1.171.83.306-.139 1.738 1.087 1.116 1.412-.716-.058 1.419 1.055.863.48-.24.914-.45.549.185-.192.334 1.34.293.31.638-.922.31.857 1.074.837 1.091-.72.593-.156 1.325.883 1.004.621-.192-1.462.971-.198 1.085.635.057.676-.392.488.455-.173.785 1.713-.14 1.582-.066-1.064.605.006 1.227.746.651.421-.327.437-.672 1.11-.459.679.216.412-.315.489.311.13 1.073 2.063-.678 1.538.414-.563 1.17 1.575.31.409 1.238-.928.738 1.14.216 1.651.167.82-.078-.04-.917.654-1.48.5-.406 1.614-.026.456.355-.485.159 1.395.255.271.799-.405.196.474 1.173 1.028.572.497-.54.75.82 1.047-.094.161-.494.303-.449 1.028-.613.453-.102-.263-.889.59-1.15 1.085-.333-.963-1.32-.059-1.57.45-.124 1.21.241 1.262.479.176.792.41-.075.767.143.364.222.463.959.603.174.088-.493-.509-1.265.324-.639 1.016.763.373-.675 1.358-1.095.677-.289-1.176-1.135-.933-1.49.08-.119.445-.696.779-1.163" fill="#008f4c" fill-rule="evenodd" stroke-width=".25"/><path d="M383.157 308.422c-.38-.323 1.027-.404.296-.982-.918-.725 1.73-.297 1.313-1.066-.315-.58-1.228-.334-.407-.938.85-.627-1.033.222-.266-.6.72-.772-1.333-.185-.47-1.182.292-.337-1.43.032-1.05-.825.435-.979-1.204-.842-.917-1.738.354-1.106-1.815.4-1.083-.643.516-.737-.101-.513-.723-.7-.487-.146-.713-1.085-1.094-.204-.485 1.123-.85-.58-1.17-.322-.337.27-.502 1.273-.688.414-.08-.372-1.179.554-.596-.355.441-.687-1.355-.279-1.349-.324.145-1.049-1.012-1.008-1.455-.157-.155.298.383-1.35-.125-1.116-.711.33-.578.346-1.067 0-.571-.403-.491 1.3-1.38 0-.33-.482-.806.577-.619 1.256.086.31.032.358-.489.494-.511.133-.172.694-.525.13-.36-.574-.495.325-.81.646-.445.456-.368-.66-.652-.663-.594-.007-1.177.63-1.061-.247.142-1.07-.913.448-1.277.72-.735.552.508.722.374 1.544-.09.553-1.22.934-.605.079.407-.566-1.203.535-.67-.528.24-.48-1.126-.535-1.152.204-.02.57-1.016-.294-.702.52.182.473.091.503-.384 1.046-.317.361.822.55.298 1.203-.379.473.224.565.778.654.34.055.478.448-.182.5-.544.044-1.2-.214-1.236.077-.113.886-.713.075-1.006.383-.394.417 1.539 1.028.26 1.066-1.086.033.343.663-.242 1.505-.438.63 1.727.284 1.602.747-.052.192-.32.245-.435.406" fill="#008f4c" fill-rule="evenodd" stroke-width=".25"/><path d="M384.085 313.538c-.346-.323.925-.412.269-.982-.844-.733 1.581-.281 1.194-1.066-.268-.544-1.113-.336-.37-.938.777-.63-.938.221-.241-.6.654-.772-1.196-.205-.429-1.182.276-.35-1.299.03-.953-.825.396-.98-1.095-.842-.835-1.738.322-1.105-1.652.406-.984-.643.467-.733-.097-.515-.658-.7-.453-.15-.648-1.083-.994-.204-.441 1.125-.78-.573-1.064-.322-.314.276-.456 1.276-.625.415-.072-.364-1.062.535-.542-.355.408-.701-1.233-.28-1.227-.324.132-1.05-.919-1.011-1.323-.158-.142.3.24-1.672-.481-.954-.524.52-.246.142-.548-.155-.545-.537-.992 1.766-.858.591.122-1.072-1.181-.015-1.014.658.078.312.047.353-.445.494-.504.145-.15.705-.477.13-.318-.56-.438.312-.736.646-.386.435-.31-.659-.594-.663-.551-.007-1.07.628-.964-.247.129-1.07-.83.448-1.161.721-.668.551.46.733.34 1.544-.082.55-1.1.918-.55.078.378-.577-1.086.516-.61-.527.223-.489-1.023-.535-1.047.204-.017.567-.922-.29-.638.52.166.475.06.53-.35 1.045-.29.365.737.567.272 1.204-.354.485.203.564.707.654.323.057.445.446-.165.5-.516.046-1.092-.204-1.125.076-.102.887-.661.09-.913.384-.374.433 1.398 1.027.235 1.065-.988.033.286.705-.22 1.506-.408.646 1.572.281 1.457.747-.045.183-.291.244-.395.405" fill="#008f4c" fill-rule="evenodd" stroke-width=".25"/><path d="M312.875 215.375v118.313c0 17.087 13.85 30.937 30.938 30.937h15.593c6.795 0 12.742 4.314 15.594 10 2.852-5.686 8.799-10 15.594-10h15.593c17.088 0 30.938-13.85 30.938-30.938V215.375z" fill="none" stroke-width=".75"/></g></svg>